<svg width="194" height="266" viewBox="0 0 194 266" fill="none" xmlns="http://www.w3.org/2000/svg">
<g filter="url(#filter0_dd_659:541)">
<rect x="13" y="13" width="170" height="242" rx="10" fill="#E8E8E8"/>
</g>
<path d="M64.4704 163.801L63.1624 170.269L87.4879 178.393L89.4188 168.847L64.4704 163.801Z" fill="#FFB6B6"/>
<path d="M66.9162 162.578L64.3397 175.316L64.3396 175.317C63.904 177.469 62.631 179.361 60.8008 180.575C58.9705 181.79 56.7328 182.227 54.5799 181.792L54.3162 181.739L58.5346 160.883L66.9162 162.578Z" fill="black"/>
<path d="M92.0364 74.7061C101.159 74.7061 108.553 67.3111 108.553 58.189C108.553 49.0668 101.159 41.6719 92.0364 41.6719C82.9142 41.6719 75.5193 49.0668 75.5193 58.189C75.5193 67.3111 82.9142 74.7061 92.0364 74.7061Z" fill="#FEB8B8"/>
<path d="M107.464 43.9394C104.994 39.9294 101.129 36.9746 96.6113 35.6438L94.5836 37.1235V35.2021C93.4987 35.0361 92.4006 34.9721 91.3038 35.0111L89.5544 36.594V35.1426C86.9642 35.4645 84.4687 36.3195 82.2255 37.6538C79.9822 38.9882 78.0397 40.7728 76.5205 42.8953C72.7214 48.3722 72.0801 55.9919 75.8168 61.5127C76.8425 58.3603 78.0875 55.4024 79.1135 52.2503C79.9197 52.3602 80.7368 52.3642 81.544 52.2621L82.7919 49.3501L83.1406 52.1389C87.0088 51.802 92.7463 51.062 96.4132 50.384L96.0566 48.2445L98.1901 50.0223C99.3135 49.7638 99.9806 49.5291 99.9255 49.3498C102.653 53.7466 105.991 56.5548 108.718 60.9517C109.753 54.7519 110.946 49.5969 107.464 43.9394Z" fill="#2F2E41"/>
<path d="M97.4106 166.273C120.899 166.273 139.94 160.947 139.94 154.377C139.94 147.807 120.899 142.481 97.4106 142.481C73.9225 142.481 54.8816 147.807 54.8816 154.377C54.8816 160.947 73.9225 166.273 97.4106 166.273Z" fill="#1F365C"/>
<path d="M127.56 100.663C126.992 97.246 126.406 93.7633 124.818 90.6851C123.774 88.6688 122.118 86.7474 119.884 86.3488C119.444 86.3096 119.012 86.2095 118.599 86.0514C117.945 85.7361 109.151 80.7158 107.753 79.8414C106.553 79.0908 104.658 77.7009 103.703 77.7009C102.742 77.6798 99.0568 78.5374 84.6737 77.4131C82.2543 78.3842 79.9115 79.5361 77.665 80.859C77.6187 80.8285 62.7366 88.8201 62.1775 88.7991C61.1187 88.7545 60.1345 89.4324 59.5275 90.2861C58.9206 91.1398 58.636 92.1967 58.3379 93.2185C61.5884 100.457 64.5624 107.705 67.8133 114.944C67.9655 115.217 68.0463 115.523 68.0483 115.836C67.983 116.16 67.8447 116.465 67.6439 116.727C66.0498 119.288 66.1005 122.509 66.2746 125.519C66.4489 128.528 66.6644 131.708 65.3193 134.405C64.9535 135.146 64.4777 135.824 64.1297 136.565C63.3149 138.242 63.0204 143.607 63.4963 145.41L123.127 147.118C121.845 143.593 127.56 100.663 127.56 100.663Z" fill="white"/>
<path d="M53.1834 115.265C53.0644 116.126 53.0524 116.998 53.1477 117.862L54.0024 130.136C54.0826 131.293 54.1616 132.447 54.2702 133.601C54.4753 135.84 54.7816 138.062 55.1618 140.28C55.1704 140.595 55.3036 140.894 55.5322 141.111C55.7607 141.328 56.066 141.445 56.381 141.437C60.1433 142.233 64.0303 142.201 67.8699 141.985C73.7289 141.658 88.7185 141.039 89.6343 139.849C90.5501 138.66 90.0164 136.735 88.8223 135.773C87.6282 134.811 67.8473 132.466 67.8473 132.466C68.0405 130.935 68.6236 129.492 69.1767 128.038C70.1702 125.459 71.0981 122.795 71.1159 120.032C71.1337 117.269 70.0928 114.364 67.8294 112.781C65.9676 111.481 63.5705 111.24 61.3017 111.294C59.651 111.341 56.7988 110.946 55.2911 111.591C54.0979 112.117 53.4063 114.097 53.1834 115.265Z" fill="#FBBEBE"/>
<path d="M127.666 143.011C128.656 142.633 129.748 142.77 130.809 142.913C134.227 143.379 137.694 143.858 140.862 145.223C142.349 145.86 143.765 146.71 144.77 147.962C145.661 149.089 146.182 150.469 146.676 151.828L147.818 154.957C148.304 156.132 148.639 157.365 148.815 158.624C149.172 162.368 146.611 165.899 143.39 167.844C140.169 169.789 136.377 170.482 132.683 171.207C128.989 171.933 125.281 172.736 121.602 173.587C119.886 174.032 118.145 174.374 116.389 174.613C112.451 175.058 108.335 174.401 104.593 175.704C103.106 176.225 101.646 176.998 100.104 177.358C99.0782 177.573 98.0416 177.731 96.9986 177.831L89.9174 178.639C88.4775 178.832 87.0278 178.943 85.5753 178.972C82.4825 178.972 79.4399 178.24 76.4365 177.508C76.1174 177.452 75.8136 177.329 75.5449 177.148C75.0692 176.773 74.9651 176.11 74.8966 175.509C74.5933 172.85 74.3279 170.189 74.1005 167.524C74.0292 166.659 73.9757 165.722 74.4486 164.993C75.0434 164.102 76.2034 163.821 77.2622 163.649C81.7518 162.914 86.2999 162.599 90.8478 162.706C92.5756 160.978 95.4249 160.969 97.6883 160.029C98.5209 159.647 99.3268 159.209 100.1 158.718C104.149 156.356 108.673 154.926 113.344 154.533C114.258 154.505 115.167 154.376 116.053 154.147C117.805 153.602 119.402 152.121 121.201 152.484C121.424 151.869 121.579 151.045 122.093 150.622C122.348 150.405 122.664 150.26 122.899 150.027C123.395 149.525 123.44 148.734 123.366 148.032C123.291 147.33 123.124 146.61 123.306 145.926C123.381 145.667 123.493 145.42 123.636 145.192C124.525 143.653 125.873 142.862 127.666 143.011Z" fill="#1F365C"/>
<path d="M58.1657 93.4391C57.876 93.7424 57.6514 94.1017 57.5056 94.495C55.1016 99.9129 53.6817 105.716 53.3123 111.631C53.3187 111.92 53.2523 112.205 53.119 112.461C52.9875 112.631 52.8412 112.79 52.6818 112.934C52.5428 113.099 52.4376 113.289 52.3722 113.495C52.3068 113.7 52.2826 113.917 52.3008 114.132C52.319 114.346 52.3794 114.555 52.4785 114.747C52.5775 114.938 52.7133 115.109 52.8781 115.248C52.9052 115.27 52.9329 115.292 52.9614 115.313C53.4521 114.39 54.6267 114.088 55.6708 114.008C60.6701 113.612 65.5535 115.938 70.5678 115.763C70.214 114.54 69.7052 113.366 69.4167 112.128C68.1407 106.635 71.3231 100.655 69.3721 95.3636C68.9823 94.3049 68.3312 93.2639 67.3052 92.8C66.8804 92.6286 66.4358 92.511 65.9818 92.4497C64.7148 92.2208 62.1925 91.2422 60.9676 91.6349C60.5154 91.7807 60.3371 92.2058 59.9623 92.4628C59.3929 92.8264 58.6376 92.9602 58.1657 93.4391Z" fill="white"/>
<path d="M127.596 111.591C126.088 110.946 123.236 111.341 121.585 111.294C119.316 111.24 116.919 111.481 115.057 112.781C112.794 114.364 111.753 117.269 111.771 120.032C111.789 122.795 112.717 125.459 113.71 128.038C114.263 129.492 114.846 130.935 115.04 132.466C115.04 132.466 95.2586 134.811 94.0645 135.773C92.8704 136.735 92.3367 138.66 93.2525 139.849C94.1683 141.039 122.744 142.233 126.506 141.437C126.821 141.445 127.126 141.328 127.355 141.111C127.583 140.894 127.716 140.595 127.725 140.28C128.105 138.062 128.412 135.84 128.617 133.601C128.725 132.447 128.804 131.293 128.884 130.136L129.739 117.862C129.834 116.998 129.822 116.126 129.703 115.265C129.481 114.097 128.789 112.117 127.596 111.591Z" fill="#FBBEBE"/>
<path d="M122.924 92.4628C122.55 92.2058 122.371 91.7807 121.919 91.6349C120.694 91.2422 118.172 92.2208 116.905 92.4497C116.451 92.511 116.006 92.6286 115.581 92.8C114.555 93.2639 113.904 94.3049 113.515 95.3636C111.564 100.655 114.746 106.635 113.47 112.128C113.181 113.366 112.673 114.54 112.319 115.763C117.333 115.938 122.216 113.612 127.216 114.008C128.26 114.088 129.435 114.39 129.925 115.313C129.954 115.292 129.981 115.27 130.009 115.248C130.173 115.109 130.309 114.938 130.408 114.747C130.507 114.555 130.568 114.346 130.586 114.132C130.604 113.917 130.58 113.7 130.514 113.495C130.449 113.289 130.344 113.099 130.205 112.934C130.045 112.79 129.899 112.631 129.768 112.461C129.634 112.205 129.568 111.92 129.574 111.631C129.205 105.716 127.785 99.9129 125.381 94.495C125.235 94.1017 125.011 93.7424 124.721 93.4391C124.249 92.9602 123.494 92.8264 122.924 92.4628Z" fill="white"/>
<path d="M131.287 173.034L130.418 179.576L104.772 179.335L106.055 169.681L131.287 173.034Z" fill="#FFB6B6"/>
<path d="M137.85 172.208L135.046 193.301L134.779 193.265C132.602 192.976 130.629 191.833 129.294 190.089C127.959 188.345 127.371 186.142 127.661 183.965L127.661 183.964L129.373 171.082L137.85 172.208Z" fill="black"/>
<path d="M70.9535 146.321C70.9535 146.618 70.4866 146.321 70.444 146.003C70.1169 143.597 68.2073 141.613 65.9828 140.649C63.7583 139.686 61.2243 139.635 58.8154 139.864C55.1722 140.209 51.0827 141.604 49.7504 145.009C49.4352 145.805 46.4821 152.893 46.7703 154.487C47.5466 158.74 50.4551 162.378 53.9794 164.897C57.5038 167.416 61.6217 168.921 65.7294 170.278C76.5897 173.86 87.7322 176.521 99.039 178.234C100.871 178.51 102.721 178.766 104.475 179.355C106.046 179.881 107.515 180.669 109.05 181.288C112.619 182.721 116.458 183.233 120.262 183.736C120.91 183.819 121.654 183.878 122.133 183.438C122.751 182.865 122.546 181.865 122.37 181.041C121.725 177.909 122.266 174.649 123.89 171.893C124.527 170.823 125.355 169.725 125.235 168.486C125.092 167.041 123.652 166.018 122.219 165.785C120.785 165.553 119.328 165.896 117.888 166.083C117.395 166.196 116.878 166.145 116.416 165.937C116.202 165.793 116.008 165.621 115.839 165.426C114.848 164.469 113.578 163.851 112.214 163.66C110.849 163.47 109.459 163.716 108.243 164.364C107.711 164.661 106.906 163.998 106.352 163.748L100.097 160.917C92.9121 157.667 85.6912 154.401 78.0894 152.343C77.4828 152.224 76.9064 151.984 76.3941 151.638C76.0164 151.34 75.7458 150.937 75.3977 150.606C74.6392 149.889 73.5827 149.603 72.6736 149.095C71.7645 148.586 70.7452 147.341 70.9535 146.321Z" fill="#1F365C"/>
<path d="M87.1445 142.023C89.6066 142.023 91.6025 140.027 91.6025 137.565C91.6025 135.103 89.6066 133.107 87.1445 133.107C84.6824 133.107 82.6865 135.103 82.6865 137.565C82.6865 140.027 84.6824 142.023 87.1445 142.023Z" fill="#FBBEBE"/>
<path d="M97.0158 142.023C99.4779 142.023 101.474 140.027 101.474 137.565C101.474 135.103 99.4779 133.107 97.0158 133.107C94.5538 133.107 92.5579 135.103 92.5579 137.565C92.5579 140.027 94.5538 142.023 97.0158 142.023Z" fill="#FBBEBE"/>
<path d="M124.534 147.611H63.288C62.5729 147.61 61.8874 147.325 61.3817 146.82C60.8761 146.314 60.5917 145.629 60.5908 144.914V107.758C60.5917 107.042 60.8761 106.357 61.3817 105.851C61.8874 105.346 62.5729 105.061 63.288 105.061H124.534C125.249 105.061 125.934 105.346 126.44 105.851C126.946 106.357 127.23 107.042 127.231 107.758V144.914C127.23 145.629 126.946 146.314 126.44 146.82C125.934 147.325 125.249 147.61 124.534 147.611Z" fill="#3F3D56"/>
<path d="M93.7622 128.12C94.7478 128.12 95.5467 127.321 95.5467 126.336C95.5467 125.35 94.7478 124.551 93.7622 124.551C92.7767 124.551 91.9778 125.35 91.9778 126.336C91.9778 127.321 92.7767 128.12 93.7622 128.12Z" fill="white"/>
<path d="M49 199H154.5C160.851 199 166 204.149 166 210.5C166 216.851 160.851 222 154.5 222H49V199Z" fill="white"/>
<g filter="url(#filter1_d_659:541)">
<circle cx="47.5" cy="209.5" r="16.5" fill="white"/>
</g>
<path d="M43.2861 217.33L43.613 217.493C44.9755 218.311 46.5013 218.692 48.0272 218.692C52.8229 218.692 56.7466 214.768 56.7466 209.973C56.7466 207.684 55.8201 205.45 54.1853 203.815C52.5504 202.18 50.3705 201.253 48.0272 201.253C43.2316 201.253 39.3078 205.177 39.3624 210.027C39.3624 211.662 39.8528 213.243 40.6702 214.605L40.8882 214.932L40.0164 218.147L43.2861 217.33Z" fill="#00E676"/>
<path d="M55.1117 202.943C53.2588 201.035 50.6975 200 48.0817 200C42.5232 200 38.0545 204.523 38.109 210.027C38.109 211.771 38.5994 213.46 39.4169 214.986L38 220.163L43.2861 218.801C44.7575 219.619 46.3923 220 48.0273 220C53.5313 220 58 215.477 58 209.973C58 207.302 56.9645 204.796 55.1118 202.943H55.1117ZM48.0817 218.311C46.6103 218.311 45.139 217.929 43.8855 217.166L43.5586 217.003L40.3979 217.82L41.2153 214.714L40.9973 214.387C38.5994 210.518 39.7439 205.395 43.6676 202.997C47.5913 200.599 52.6594 201.744 55.0572 205.668C57.455 209.591 56.3106 214.659 52.387 217.057C51.1335 217.875 49.6076 218.311 48.0817 218.311V218.311ZM52.8773 212.262L52.2779 211.989C52.2779 211.989 51.406 211.608 50.861 211.335C50.8065 211.335 50.7521 211.281 50.6975 211.281C50.534 211.281 50.425 211.335 50.3161 211.39C50.3161 211.39 50.2616 211.444 49.4986 212.316C49.4441 212.425 49.3351 212.48 49.2262 212.48H49.1716C49.1172 212.48 49.0082 212.425 48.9537 212.371L48.6812 212.262C48.0817 211.989 47.5368 211.662 47.1008 211.226C46.9918 211.117 46.8283 211.008 46.7193 210.899C46.3378 210.518 45.9564 210.082 45.6839 209.591L45.6294 209.482C45.575 209.428 45.575 209.373 45.5204 209.264C45.5204 209.155 45.5204 209.046 45.575 208.992C45.575 208.992 45.7929 208.719 45.9564 208.556C46.0654 208.447 46.1199 208.283 46.2289 208.174C46.3378 208.011 46.3924 207.793 46.3378 207.629C46.2834 207.357 45.6294 205.886 45.466 205.559C45.3569 205.395 45.248 205.341 45.0845 205.286H44.4851C44.376 205.286 44.2671 205.341 44.158 205.341L44.1035 205.395C43.9945 205.45 43.8855 205.559 43.7766 205.613C43.6676 205.722 43.613 205.831 43.5041 205.94C43.1226 206.431 42.9046 207.03 42.9046 207.629C42.9046 208.065 43.0136 208.501 43.1771 208.883L43.2316 209.046C43.7221 210.082 44.376 211.008 45.248 211.826L45.466 212.044C45.6294 212.207 45.7929 212.316 45.9019 212.48C47.0463 213.461 48.3542 214.169 49.8256 214.55C49.9891 214.605 50.2071 214.605 50.3706 214.659H50.9155C51.188 214.659 51.5149 214.55 51.733 214.441C51.8964 214.333 52.0054 214.333 52.1144 214.224L52.2234 214.114C52.3324 214.005 52.4414 213.951 52.5504 213.842C52.6594 213.733 52.7684 213.624 52.8229 213.515C52.9319 213.297 52.9863 213.025 53.0409 212.752V212.371C53.0409 212.371 52.9863 212.316 52.8773 212.262Z" fill="white"/>
<defs>
<filter id="filter0_dd_659:541" x="0" y="0" width="194" height="266" filterUnits="userSpaceOnUse" color-interpolation-filters="sRGB">
<feFlood flood-opacity="0" result="BackgroundImageFix"/>
<feColorMatrix in="SourceAlpha" type="matrix" values="0 0 0 0 0 0 0 0 0 0 0 0 0 0 0 0 0 0 127 0" result="hardAlpha"/>
<feMorphology radius="3" operator="dilate" in="SourceAlpha" result="effect1_dropShadow_659:541"/>
<feOffset dx="-1" dy="-1"/>
<feGaussianBlur stdDeviation="4.5"/>
<feComposite in2="hardAlpha" operator="out"/>
<feColorMatrix type="matrix" values="0 0 0 0 0 0 0 0 0 0 0 0 0 0 0 0 0 0 0.15 0"/>
<feBlend mode="normal" in2="BackgroundImageFix" result="effect1_dropShadow_659:541"/>
<feColorMatrix in="SourceAlpha" type="matrix" values="0 0 0 0 0 0 0 0 0 0 0 0 0 0 0 0 0 0 127 0" result="hardAlpha"/>
<feMorphology radius="3" operator="dilate" in="SourceAlpha" result="effect2_dropShadow_659:541"/>
<feOffset dx="-1" dy="-1"/>
<feGaussianBlur stdDeviation="4.5"/>
<feComposite in2="hardAlpha" operator="out"/>
<feColorMatrix type="matrix" values="0 0 0 0 0 0 0 0 0 0 0 0 0 0 0 0 0 0 0.15 0"/>
<feBlend mode="normal" in2="effect1_dropShadow_659:541" result="effect2_dropShadow_659:541"/>
<feBlend mode="normal" in="SourceGraphic" in2="effect2_dropShadow_659:541" result="shape"/>
</filter>
<filter id="filter1_d_659:541" x="27" y="193" width="41" height="41" filterUnits="userSpaceOnUse" color-interpolation-filters="sRGB">
<feFlood flood-opacity="0" result="BackgroundImageFix"/>
<feColorMatrix in="SourceAlpha" type="matrix" values="0 0 0 0 0 0 0 0 0 0 0 0 0 0 0 0 0 0 127 0" result="hardAlpha"/>
<feOffset dy="4"/>
<feGaussianBlur stdDeviation="2"/>
<feComposite in2="hardAlpha" operator="out"/>
<feColorMatrix type="matrix" values="0 0 0 0 0 0 0 0 0 0 0 0 0 0 0 0 0 0 0.25 0"/>
<feBlend mode="normal" in2="BackgroundImageFix" result="effect1_dropShadow_659:541"/>
<feBlend mode="normal" in="SourceGraphic" in2="effect1_dropShadow_659:541" result="shape"/>
</filter>
</defs>
</svg>
