<svg width="9" height="6" viewBox="0 0 9 6" fill="none" xmlns="http://www.w3.org/2000/svg">
<path d="M3.78352 5.3543L0.186989 1.24334C-0.237456 0.759651 0.107499 2.75743e-07 0.751665 2.75743e-07H7.94472C8.08889 -0.000123328 8.23003 0.0413105 8.35125 0.11934C8.47247 0.19737 8.56863 0.308687 8.62822 0.439962C8.6878 0.571237 8.70828 0.716905 8.68721 0.859521C8.66614 1.00214 8.6044 1.13565 8.5094 1.24409L4.91287 5.35355C4.84248 5.4341 4.75568 5.49865 4.65828 5.54288C4.56089 5.58712 4.45516 5.61 4.34819 5.61C4.24123 5.61 4.1355 5.58712 4.0381 5.54288C3.94071 5.49865 3.8539 5.4341 3.78352 5.35355V5.3543Z" fill="white" fill-opacity="0.25"/>
</svg>
