<svg width="16" height="24" viewBox="0 0 16 24" fill="none" xmlns="http://www.w3.org/2000/svg">
<path d="M0 5.08932C0 2.80397 2.45326 1.35785 4.45278 2.46455L7.34159 4.06346C8.29631 4.59189 8.88881 5.59704 8.88881 6.68824V18.1849C8.88881 20.4846 6.4077 21.9292 4.40777 20.7939L1.51897 19.154C0.58009 18.621 0 17.6246 0 16.545V5.08932Z" fill="white"/>
<path fill-rule="evenodd" clip-rule="evenodd" d="M3.23877 3.6792H9.80704C10.3593 3.6792 10.807 4.12692 10.807 4.6792V9.00482H12.807V4.6792C12.807 3.02234 11.4639 1.6792 9.80704 1.6792H3.23877C1.58192 1.6792 0.23877 3.02235 0.23877 4.6792V15.879C0.23877 17.5359 1.58192 18.879 3.23877 18.879H9.80704C11.4639 18.879 12.807 17.5358 12.807 15.879V12.5085H10.807V15.879C10.807 16.4313 10.3593 16.879 9.80704 16.879H3.23877C2.68648 16.879 2.23877 16.4313 2.23877 15.879V4.6792C2.23877 4.12691 2.68649 3.6792 3.23877 3.6792Z" fill="white"/>
<path d="M13.6896 9.04595C13.4708 8.77238 13.6656 8.36719 14.0159 8.36719C14.1428 8.36719 14.2629 8.42489 14.3422 8.52402L15.5005 9.97217C15.7926 10.3374 15.7926 10.8562 15.5005 11.2214L14.3422 12.6696C14.2629 12.7687 14.1428 12.8264 14.0159 12.8264C13.6656 12.8264 13.4708 12.4212 13.6896 12.1476L14.4348 11.216C14.7244 10.854 14.7244 10.3396 14.4348 9.97762L13.6896 9.04595Z" fill="white"/>
<path d="M10.7693 10.5963C10.7693 10.35 10.9689 10.1504 11.2152 10.1504H15.0493V11.0422H11.2152C10.9689 11.0422 10.7693 10.8426 10.7693 10.5963Z" fill="white"/>
</svg>
