<svg width="240" height="149" viewBox="0 0 240 149" fill="none" xmlns="http://www.w3.org/2000/svg">
<path opacity="0.1" d="M101.394 149C143.149 149 176.998 146.035 176.998 142.378C176.998 138.72 143.149 135.755 101.394 135.755C59.6392 135.755 25.7903 138.72 25.7903 142.378C25.7903 146.035 59.6392 149 101.394 149Z" fill="#A1060D"/>
<path d="M34.5959 142.013C34.5959 142.013 31.6232 125.169 20.5896 116.823C15.9599 113.32 12.5724 108.557 11.093 103.132C10.3967 100.562 9.95064 97.9301 9.76099 95.2739" stroke="#CFCFCF" stroke-width="2" stroke-miterlimit="10"/>
<path d="M2.84302 89.9733C3.76479 91.7777 9.92456 95.4302 9.92456 95.4302C9.92456 95.4302 10.6989 88.6068 9.77017 86.8001C8.84148 84.9934 6.54395 84.2399 4.62665 85.1156C2.70936 85.9912 1.91433 88.1666 2.84302 89.9733Z" fill="#A1060D"/>
<path d="M2.25532 102.6C4.07583 103.639 11.344 103.547 11.344 103.547C11.344 103.547 8.06482 97.4217 6.25122 96.3824C4.43762 95.3431 2.06635 95.8916 0.964832 97.6084C-0.136691 99.3252 0.437116 101.561 2.25532 102.6Z" fill="#A1060D"/>
<path d="M11.291 119.588C13.4157 119.618 19.64 116.074 19.64 116.074C19.64 116.074 13.5355 112.35 11.4085 112.318C9.28152 112.286 7.53245 113.889 7.49097 115.897C7.44949 117.904 9.16399 119.551 11.291 119.588Z" fill="#A1060D"/>
<path d="M21.191 130.979C23.2789 131.35 30.0493 128.847 30.0493 128.847C30.0493 128.847 24.6984 124.197 22.6129 123.833C20.5273 123.469 18.511 124.754 18.1192 126.736C17.7275 128.718 19.1009 130.61 21.191 130.979Z" fill="#A1060D"/>
<path d="M18.7963 100.565C18.0704 102.452 12.3439 106.683 12.3439 106.683C12.3439 106.683 10.8275 99.9723 11.5534 98.085C12.2793 96.1976 14.4893 95.2229 16.4873 95.9073C18.4852 96.5917 19.5222 98.6795 18.7963 100.565Z" fill="#A1060D"/>
<path d="M30.1967 114.031C28.9062 115.628 22.1035 118.048 22.1035 118.048C22.1035 118.048 22.7949 111.215 24.0761 109.62C24.7233 108.847 25.6387 108.346 26.6392 108.218C27.6397 108.089 28.6518 108.343 29.4731 108.929C29.8719 109.204 30.2093 109.558 30.4641 109.97C30.7189 110.382 30.8856 110.842 30.9536 111.321C31.0216 111.801 30.9894 112.289 30.8591 112.756C30.7289 113.222 30.5033 113.656 30.1967 114.031Z" fill="#A1060D"/>
<path d="M39.3729 128.556C38.3866 130.335 32.1162 133.806 32.1162 133.806C32.1162 133.806 31.5654 126.964 32.5517 125.185C33.538 123.406 35.8632 122.719 37.7482 123.65C39.6333 124.581 40.3569 126.777 39.3729 128.556Z" fill="#A1060D"/>
<path opacity="0.25" d="M2.84302 89.9733C3.76479 91.7777 9.92456 95.4302 9.92456 95.4302C9.92456 95.4302 10.6989 88.6068 9.77017 86.8001C8.84148 84.9934 6.54395 84.2399 4.62665 85.1156C2.70936 85.9912 1.91433 88.1666 2.84302 89.9733Z" fill="#A1060D"/>
<path opacity="0.25" d="M2.25532 102.6C4.07583 103.639 11.344 103.547 11.344 103.547C11.344 103.547 8.06482 97.4217 6.25122 96.3824C4.43762 95.3431 2.06635 95.8916 0.964832 97.6084C-0.136691 99.3252 0.437116 101.561 2.25532 102.6Z" fill="#A1060D"/>
<path opacity="0.25" d="M11.291 119.588C13.4157 119.618 19.64 116.074 19.64 116.074C19.64 116.074 13.5355 112.35 11.4085 112.318C9.28152 112.286 7.53245 113.889 7.49097 115.897C7.44949 117.904 9.16399 119.551 11.291 119.588Z" fill="#A1060D"/>
<path opacity="0.25" d="M21.191 130.979C23.2789 131.35 30.0493 128.847 30.0493 128.847C30.0493 128.847 24.6984 124.197 22.6129 123.833C20.5273 123.469 18.511 124.754 18.1192 126.736C17.7275 128.718 19.1009 130.61 21.191 130.979Z" fill="#A1060D"/>
<path opacity="0.25" d="M18.7963 100.565C18.0704 102.452 12.3439 106.683 12.3439 106.683C12.3439 106.683 10.8275 99.9723 11.5534 98.085C12.2793 96.1976 14.4893 95.2229 16.4873 95.9073C18.4852 96.5917 19.5222 98.6795 18.7963 100.565Z" fill="#A1060D"/>
<path opacity="0.25" d="M30.1967 114.031C28.9062 115.628 22.1035 118.048 22.1035 118.048C22.1035 118.048 22.7949 111.215 24.0761 109.62C24.7233 108.847 25.6387 108.346 26.6392 108.218C27.6397 108.089 28.6518 108.343 29.4731 108.929C29.8719 109.204 30.2093 109.558 30.4641 109.97C30.7189 110.382 30.8856 110.842 30.9536 111.321C31.0216 111.801 30.9894 112.289 30.8591 112.756C30.7289 113.222 30.5033 113.656 30.1967 114.031Z" fill="#A1060D"/>
<path opacity="0.25" d="M39.3729 128.556C38.3866 130.335 32.1162 133.806 32.1162 133.806C32.1162 133.806 31.5654 126.964 32.5517 125.185C33.538 123.406 35.8632 122.719 37.7482 123.65C39.6333 124.581 40.3569 126.777 39.3729 128.556Z" fill="#A1060D"/>
<path d="M34.2223 141.57C34.2223 141.57 38.7321 125.033 32.2289 113.179C29.5005 108.206 28.4474 102.556 29.4244 97.0296C29.8935 94.4022 30.6151 91.8262 31.5791 89.3374" stroke="#C4C4C4" stroke-opacity="0.7" stroke-width="2" stroke-miterlimit="10"/>
<path d="M27.5281 81.8457C27.6019 83.8506 31.66 89.5449 31.66 89.5449C31.66 89.5449 35.2964 83.6017 35.2227 81.5945C35.1489 79.5874 33.3676 78.018 31.2429 78.0872C29.1182 78.1563 27.4521 79.8385 27.5281 81.8457Z" fill="#A1060D"/>
<path d="M21.5733 93.1655C22.79 94.8109 29.4729 97.5071 29.4729 97.5071C29.4729 97.5071 29.1042 90.6536 27.8874 89.006C27.272 88.2079 26.3779 87.6716 25.384 87.5046C24.3902 87.3375 23.3699 87.5519 22.5273 88.1049C22.1179 88.3621 21.766 88.7011 21.4937 89.1006C21.2214 89.5002 21.0346 89.9517 20.945 90.4268C20.8555 90.902 20.865 91.3905 20.9731 91.8618C21.0812 92.333 21.2856 92.7769 21.5733 93.1655Z" fill="#A1060D"/>
<path d="M22.5415 112.147C24.4726 112.988 31.6855 112.131 31.6855 112.131C31.6855 112.131 27.7012 106.388 25.77 105.547C23.8389 104.706 21.5529 105.501 20.6611 107.324C19.7693 109.146 20.6127 111.306 22.5415 112.147Z" fill="#A1060D"/>
<path d="M26.7008 126.353C28.4544 127.492 35.7157 127.794 35.7157 127.794C35.7157 127.794 32.8167 121.5 31.0654 120.364C30.2213 119.814 29.2006 119.604 28.2079 119.775C27.2152 119.946 26.3237 120.485 25.7121 121.286C25.4248 121.677 25.2217 122.123 25.1155 122.597C25.0094 123.07 25.0026 123.56 25.0955 124.036C25.1884 124.513 25.379 124.964 25.6553 125.363C25.9316 125.762 26.2876 126.099 26.7008 126.353Z" fill="#A1060D"/>
<path d="M37.5682 97.6331C36.0933 99.0803 29.0417 100.76 29.0417 100.76C29.0417 100.76 30.5373 94.0428 32.0099 92.5956C32.7386 91.8972 33.7036 91.499 34.7127 91.4802C35.7219 91.4614 36.7011 91.8234 37.4553 92.4942C37.8177 92.8135 38.11 93.2045 38.3137 93.6425C38.5174 94.0805 38.628 94.556 38.6387 95.0389C38.6493 95.5218 38.5596 96.0017 38.3754 96.4482C38.1911 96.8947 37.9163 97.2982 37.5682 97.6331Z" fill="#A1060D"/>
<path d="M42.2006 114.307C40.3363 115.272 33.0796 114.883 33.0796 114.883C33.0796 114.883 36.6353 108.891 38.4996 107.933C40.3639 106.974 42.7052 107.612 43.7261 109.373C44.747 111.134 44.0741 113.341 42.2006 114.307Z" fill="#A1060D"/>
<path d="M44.3646 131.096C42.6984 132.345 35.4763 133.119 35.4763 133.119C35.4763 133.119 37.9098 126.651 39.5759 125.402C40.3858 124.801 41.3926 124.527 42.3953 124.636C43.3979 124.745 44.3225 125.228 44.9844 125.989C45.2974 126.357 45.5308 126.786 45.6698 127.249C45.8089 127.712 45.8506 128.199 45.7924 128.678C45.7341 129.158 45.5772 129.62 45.3315 130.037C45.0857 130.453 44.7565 130.813 44.3646 131.096Z" fill="#A1060D"/>
<path d="M238.54 45.0076C238.678 44.6297 237.641 42.5349 237.641 42.4312C237.641 42.3275 236.569 41.1592 236.569 40.507C236.569 39.8549 235.15 38.4469 235.15 38.4469C235.15 38.4469 233.249 37.6564 233.041 35.9396C232.834 34.2228 230.762 34.186 230.758 34.186C230.758 34.186 230.758 34.0293 230.771 33.7919C230.771 33.2573 230.755 32.3032 230.516 31.7824C230.269 31.3084 229.846 30.9501 229.338 30.7846C229.338 30.7846 229.131 29.4457 228.716 29.0332C228.484 28.7911 228.318 28.494 228.233 28.1698C228.148 27.8457 228.147 27.5052 228.23 27.1805C228.437 26.5283 227.953 24.876 226.948 24.6456C225.944 24.4151 224.805 24.028 224.805 24.028C224.805 24.028 224.692 24.0487 224.529 24.0718L224.39 24.028C224.15 24.0724 223.907 24.1024 223.662 24.1179C223.45 24.1254 223.243 24.0567 223.077 23.9243C222.729 23.5464 219.927 22.8251 219.408 22.8251C218.89 22.8251 217.401 22.1337 217.401 22.1337L215.917 20.9999C215.5 20.6819 214.728 19.3868 214.615 19.2048L214.601 19.1794C214.474 18.8868 214.369 18.5848 214.288 18.2761C214.794 17.7472 215.226 17.1527 215.574 16.5086C215.611 16.4418 215.643 16.3726 215.675 16.3058C215.753 16.3045 215.831 16.292 215.906 16.2689C215.935 16.2689 215.965 16.2459 215.995 16.2344C216.346 16.0496 216.61 15.7342 216.73 15.3564C216.756 15.2826 216.779 15.2066 216.797 15.1259C216.797 15.1006 216.797 15.0729 216.813 15.0476C216.83 15.0222 216.836 14.9439 216.846 14.8909C216.855 14.8379 216.857 14.831 216.862 14.8033C216.866 14.7757 216.878 14.6996 216.885 14.6466C216.892 14.5936 216.885 14.589 216.885 14.5613C216.885 14.4945 216.901 14.43 216.91 14.3655C216.934 14.1218 216.97 13.8795 217.019 13.6396C217.226 12.7178 217.786 11.9205 218.185 11.0586C218.242 10.9365 218.295 10.8097 218.344 10.683C218.392 10.5562 218.44 10.4064 218.48 10.2659L218.514 10.1368C218.539 10.0354 218.563 9.93172 218.583 9.82802C218.583 9.78193 218.602 9.73584 218.609 9.68975C218.632 9.54688 218.652 9.404 218.664 9.25882C218.738 8.43581 218.621 7.60675 218.321 6.83685C218.06 6.19161 217.675 5.61089 217.413 4.96565C217.014 3.98857 216.91 2.89165 216.424 1.95144C215.611 0.389029 213.693 -0.392178 212.117 0.195454C211.363 0.474291 210.711 1.01814 209.949 1.26241C208.925 1.58734 207.833 1.34307 206.775 1.19558C205.718 1.0481 204.547 1.03658 203.697 1.72791C202.717 2.52294 202.448 4.01852 201.528 4.89191C201.143 5.25831 200.662 5.49336 200.254 5.83212C199.967 6.06165 199.747 6.36303 199.615 6.7055C199.615 6.73085 199.599 6.75389 199.592 6.77924C199.585 6.80459 199.576 6.83686 199.569 6.86681C199.562 6.89677 199.555 6.93595 199.551 6.97051C199.546 7.00508 199.551 7.0189 199.551 7.04195C199.546 7.10331 199.546 7.16494 199.551 7.22631C199.557 7.28445 199.568 7.34216 199.581 7.39914C199.581 7.41527 199.581 7.4314 199.581 7.44753C199.581 7.46366 199.608 7.54201 199.625 7.59041C199.624 7.5996 199.624 7.60887 199.625 7.61806C199.643 7.67106 199.664 7.72176 199.685 7.77476L199.719 7.85311L199.747 7.91764C199.882 8.17116 199.989 8.43848 200.067 8.71497C200.11 8.88992 200.1 9.07374 200.037 9.24269C199.943 9.43391 199.812 9.60465 199.652 9.74506C198.964 10.461 198.433 11.3126 198.092 12.2454C198.053 12.3514 198.014 12.4574 197.979 12.568L198.028 12.5795C198.126 12.6097 198.227 12.632 198.33 12.6463C198.387 12.6463 198.445 12.6602 198.505 12.6648C198.741 12.6773 198.978 12.6587 199.21 12.6095C199.267 12.598 199.327 12.5841 199.385 12.568C199.622 12.5025 199.854 12.4169 200.076 12.3122C200.076 12.3813 200.076 12.4528 200.076 12.5219C200.076 12.591 200.076 12.6003 200.076 12.6394C200.079 14.1588 200.505 15.6475 201.306 16.9382C202.108 18.229 203.253 19.2709 204.614 19.9468C204.614 20.0206 204.634 20.0966 204.644 20.1773C204.653 20.2579 204.66 20.3017 204.667 20.3639L204.575 20.274C204.575 20.274 203.95 19.9653 203.362 20.8571C202.775 21.7489 201.669 22.1637 201.669 22.1637C201.669 22.1637 195.373 23.1592 195.131 23.9842L192.19 24.1547C192.19 24.1547 191.151 24.293 191.038 26.4592C190.925 28.6253 190.382 28.8304 190.382 28.8304C190.382 28.8304 189.172 30.9597 189.275 32.0567C189.379 33.1536 188.354 33.7066 188.354 33.7066L188.215 35.6631C188.215 35.6631 187.063 35.4926 186.761 36.8315C186.459 38.1703 185.897 38.7902 185.897 38.7902C185.897 38.7902 183.994 40.3711 183.89 41.71L182.715 42.4312C182.715 42.4312 179.982 41.8137 179.359 40.7144L179.168 40.5347C179.162 40.526 179.156 40.5167 179.152 40.507C179.151 40.5116 179.151 40.5163 179.152 40.5209C178.742 40.1337 177.875 39.3272 178 39.5115C178.081 39.6842 178.1 39.8793 178.055 40.0646L177.852 39.8341L177.308 39.2304C177.308 39.2304 172.891 35.0824 170.296 34.7644C170.261 34.6975 170.096 34.0454 169.653 34.4533C169.286 34.7892 168.992 35.1976 168.79 35.6528C168.588 36.1079 168.482 36.5999 168.48 37.0978C168.478 37.5957 168.578 38.0887 168.776 38.5458C168.973 39.0028 169.263 39.414 169.628 39.7535L173.764 43.618L173.87 43.6964L174.76 44.8486C174.61 45.2081 174.483 45.5561 174.379 45.8741C174.379 45.8741 174.379 45.8948 174.368 45.904C174.347 45.9732 174.324 46.0377 174.303 46.1022L174.283 46.1714C174.264 46.2359 174.244 46.3004 174.225 46.3603C174.207 46.4202 174.204 46.4364 174.193 46.4732C174.181 46.5101 174.193 46.517 174.174 46.5378C174.078 46.8834 174.013 47.1484 173.981 47.2959L173.75 47.2245L173.981 47.3213C173.981 47.3328 173.981 47.3466 173.981 47.3581L173.967 47.4296L174.179 47.5218C175.391 48.0495 181.44 50.7019 181.751 51.1052C182.097 51.5499 184.378 52.8565 186.455 51.7573C188.531 50.6581 188.99 48.9736 188.99 48.9736C188.99 48.9736 190.994 46.1921 191.064 45.7796C191.133 45.3671 192.691 44.8855 192.691 44.8855C192.691 44.8855 192.829 49.4944 192.034 51.172C191.239 52.8496 189.75 60.3114 189.75 60.3114C189.847 60.292 189.946 60.2858 190.045 60.293C189.99 60.5626 189.957 60.7239 189.957 60.7239C190.079 60.702 190.203 60.702 190.324 60.7239C190.213 61.5719 189.577 65.5079 189.577 65.5079C189.577 65.5079 189.37 67.2939 189.024 67.9115C188.679 68.529 188.644 71.7599 188.644 71.7599L188.091 74.0943C188.154 74.2321 188.224 74.3667 188.301 74.4976C188.301 74.4976 188.895 75.8157 189.893 76.5554C189.847 76.9225 189.754 77.282 189.614 77.6247C189.398 78.1457 189.303 78.7092 189.338 79.2723C189.338 79.2723 188.75 81.9178 188.819 82.6737C188.888 83.4296 188.439 85.2846 188.439 85.2846L187.796 91.2439C187.796 91.2439 187.381 96.4312 187.589 97.8415C187.796 99.2519 187.448 101.171 187.448 101.171C187.448 101.171 187.863 105.26 187.759 105.707C187.655 106.154 187.137 108.076 187.448 109.143C187.759 110.209 187.589 113.127 187.589 113.127C187.589 113.127 187.796 116.973 188.036 118.21C188.275 119.448 187.966 121.029 187.966 121.029C187.966 121.029 187.736 123.672 187.621 123.672C187.506 123.672 186.618 125.493 188.45 127.281C190.282 129.069 189.142 128.79 189.142 128.79C189.142 128.79 187.69 128.069 187.86 129.546C188.026 130.952 188.255 130.585 188.275 130.546L187.93 131.675L188.16 131.71L187.96 131.94C187.752 132.203 187.521 132.445 187.268 132.664C186.851 132.973 186.807 133.659 186.807 133.659C186.807 133.659 184.249 136.443 181.862 137.851C180.606 138.593 179.523 139.22 179.051 139.739C178.624 140.199 178.693 140.582 179.578 140.875C181.447 141.492 184.731 141.796 187.084 141.013C188.486 140.544 189.748 139.729 190.75 138.642C190.75 138.642 192.239 137.886 193.693 138.16C195.147 138.434 198.051 136.547 198.051 136.547L197.998 136.058L197.843 134.655C197.746 134.537 197.674 134.399 197.632 134.252C197.59 134.104 197.58 133.95 197.601 133.798C197.619 133.382 197.577 132.967 197.479 132.563C197.456 132.427 197.428 132.291 197.403 132.164L197.668 132.115C197.668 132.115 197.325 130.362 197.947 130.018C198.569 129.675 198.394 125.179 198.394 125.179C198.394 125.179 197.601 124.149 197.184 123.979C196.767 123.808 197.15 121.674 197.221 121.4C197.293 121.126 197.843 115.8 197.843 115.8C197.843 115.8 197.636 114.118 197.912 113.397C198.189 112.675 197.581 109.91 197.581 109.91C197.581 109.91 197.373 109.567 197.756 109.154C198.138 108.742 197.986 105.066 197.986 105.066C197.986 105.066 197.954 103.211 197.954 102.729C197.954 102.248 198.369 100.496 198.749 99.9132C199.129 99.3302 198.887 97.5074 198.887 97.5074L198.908 97.3714C198.908 97.3184 198.926 97.2539 198.94 97.1755L198.97 96.9935C199.139 95.9815 199.367 94.9804 199.655 93.9954C200.115 92.5528 200.622 90.011 200.622 90.011L203.849 81.6229L203.886 81.5238C203.886 81.5238 205.372 84.273 205.372 86.824C205.372 86.824 205.752 89.882 205.648 90.707C205.545 91.532 205.955 95.3919 205.955 95.3919C205.955 95.3919 206.404 100.957 206.404 101.199C206.404 101.441 206.957 105.734 207.305 106.386C207.653 107.039 206.957 109.032 206.75 109.237C206.543 109.442 206.819 114.493 206.819 114.493C206.819 114.493 206.301 118.478 206.197 119.303C206.093 120.128 205.678 123.289 206.024 124.525C206.37 125.76 206.231 125.933 206.231 125.933C206.231 125.933 207.478 127.205 206.75 127.315C206.485 127.373 206.236 127.487 206.019 127.649C205.801 127.81 205.621 128.017 205.49 128.254C205.359 128.491 205.281 128.754 205.26 129.024C205.238 129.294 205.275 129.566 205.367 129.82C205.798 131.08 206.307 132.311 206.891 133.507C206.891 133.507 207.105 133.459 207.462 133.388V133.795L207.504 135.842C207.504 135.842 207.734 137.801 207.607 138.248C207.506 138.575 207.377 140.114 207.301 140.918C207.275 141.211 207.262 141.407 207.262 141.407C207.262 141.407 207.262 143.227 211.101 142.679C214.94 142.131 215.631 140.619 215.631 140.619C215.631 140.619 215.631 140.547 215.659 140.43C215.717 140.082 215.841 139.345 215.942 138.934C216.081 138.384 214.836 135.911 214.836 135.911C214.836 135.911 214.629 134.229 214.281 133.851C214.138 133.633 214.044 133.387 214.004 133.129C213.972 132.991 213.944 132.846 213.921 132.705C214.007 132.716 214.093 132.732 214.177 132.752C214.177 132.752 213.97 131.549 214.767 131.171C215.564 130.793 215.355 130.005 215.251 129.659C215.147 129.313 215.562 127.391 215.562 127.391C215.506 127.2 215.503 126.998 215.551 126.805C215.6 126.613 215.699 126.436 215.839 126.294C216.325 125.811 216.703 122.446 216.703 122.446L216.772 109.461C216.772 109.461 217.016 107.156 216.74 106.234C216.463 105.313 216.184 103.522 216.565 103.04C216.945 102.559 216.599 100.328 216.599 100.328C216.599 100.328 216.599 95.62 217.12 94.454C217.641 93.288 217.466 85.8999 217.466 85.8999L217.602 81.0606C217.602 81.0606 218.733 79.9913 218.466 74.4169C219.671 74.3408 221.031 74.2971 221.231 74.463C221.611 74.7741 224.068 76.3526 225.52 75.3571C225.831 75.2188 227.248 74.0182 227.248 74.0182L226.64 63.7174C227.02 64.2912 227.25 64.6737 227.25 64.6737C227.25 63.2311 231.331 58.5577 231.331 58.5577C231.331 58.5577 235.136 53.647 235.966 53.0616C236.795 52.4763 238.422 49.386 238.422 49.386C238.663 48.7966 238.94 48.2232 239.254 47.6692C239.648 47.0355 238.401 45.3855 238.54 45.0076ZM229.612 48.6118C228.575 48.7155 226.386 51.0867 226.361 51.6075C226.345 51.8795 226.114 52.2436 225.9 52.5293C225.884 52.3219 225.865 52.1099 225.849 51.8956C225.605 48.8606 225.34 45.162 225.46 44.8025C225.669 44.1849 225.598 41.4035 225.598 41.4035L225.635 41.3505C226.326 43.5051 228.499 46.0469 228.499 46.0469C228.499 46.0469 228.88 47.1461 229.329 47.1807C229.778 47.2153 229.612 48.6118 229.612 48.6118Z" fill="url(#paint0_linear_671:1956)"/>
<path d="M174.154 47.8304C174.154 47.8304 175.414 41.2167 179.472 41.1821L182.438 47.2843L180.461 48.6485C180.461 48.6485 176.165 48.7845 174.154 47.8304Z" fill="#65617D"/>
<path opacity="0.1" d="M182.438 47.2847L180.461 48.6489C180.461 48.6489 177.437 48.7457 175.276 48.2134C174.89 48.122 174.515 47.9939 174.154 47.8308C174.154 47.8308 174.154 47.794 174.177 47.7248C174.177 47.7248 174.177 47.7087 174.177 47.6995C174.363 46.8695 174.619 46.0569 174.944 45.2706C175.071 44.9733 175.211 44.6669 175.363 44.3604C175.958 43.2081 176.792 42.0974 177.935 41.542C178.358 41.3346 178.818 41.2147 179.288 41.1895H179.408H179.468L179.532 41.3254L180.535 43.3856L182.438 47.2847Z" fill="black"/>
<path d="M216.12 74.7616C216.12 74.7616 220.383 74.3537 220.757 74.6602C221.13 74.9667 223.552 76.5337 224.985 75.5451C226.419 74.5565 225.462 71.1137 225.462 70.9777C225.462 70.8418 225.326 65.9656 225.326 65.9656L222.768 62.5227L219.565 56.4897L213.021 55.8398L213.191 65.4217L213.156 70.3302L216.12 74.7616Z" fill="#65617D"/>
<path opacity="0.1" d="M216.12 74.7616C216.12 74.7616 220.383 74.3537 220.757 74.6602C221.13 74.9667 223.552 76.5337 224.985 75.5451C226.419 74.5565 225.462 71.1137 225.462 70.9777C225.462 70.8418 225.326 65.9656 225.326 65.9656L222.768 62.5227L219.565 56.4897L213.021 55.8398L213.191 65.4217L213.156 70.3302L216.12 74.7616Z" fill="black"/>
<path d="M178.62 41.0074C178.62 41.0074 178.278 45.1669 175.688 45.2337C175.688 45.2337 174.953 44.7913 173.965 44.0539C171.688 42.3509 168.077 39.0763 169.075 36.0298C170.506 31.6675 177.46 39.7169 177.46 39.7169L177.993 40.3161L178.62 41.0074Z" fill="#FBBEBE"/>
<path opacity="0.1" d="M178.619 41.0077C178.619 41.0077 178.278 45.1673 175.688 45.2341C175.688 45.2341 174.953 44.7916 173.965 44.0542L173.746 43.7708C174.185 44 174.67 44.1306 175.165 44.1533C175.555 44.1688 175.94 44.0653 176.269 43.8566C176.598 43.6479 176.856 43.3439 177.009 42.9849C177.281 42.4502 177.521 41.8991 177.725 41.335C177.851 41.0063 177.941 40.6647 177.993 40.3164L178.619 41.0077Z" fill="black"/>
<path d="M177.495 48.5469L176.912 47.7956L174.949 45.2608L173.949 43.968C174.388 44.1984 174.873 44.3291 175.368 44.3505C176.02 44.3666 176.751 44.1201 177.212 43.1845C177.484 42.6487 177.723 42.0969 177.928 41.5322C178.251 40.6104 178.247 40.1495 178.131 39.9813C178.016 39.8131 178.855 40.5989 179.258 40.9814L179.272 40.9952L179.461 41.1727L179.53 41.311L180.519 43.2859C180.519 43.2859 180.519 43.3135 180.519 43.3688C180.615 44.0025 180.95 47.9823 177.495 48.5469Z" fill="#E7EFFD"/>
<path d="M197.917 136.298C197.917 136.298 195.053 138.174 193.621 137.911C192.19 137.649 190.722 138.391 190.722 138.391C189.736 139.468 188.492 140.278 187.107 140.744C184.802 141.527 181.553 141.218 179.712 140.605C178.841 140.315 178.769 139.942 179.189 139.478C179.65 138.962 180.723 138.342 181.954 137.605C184.307 136.208 186.828 133.457 186.828 133.457C186.828 133.457 186.863 132.766 187.273 132.471C187.525 132.253 187.757 132.012 187.964 131.752C188.33 131.318 188.674 130.867 188.674 130.867L197.099 131.111C197.099 131.111 197.242 131.717 197.355 132.337C197.451 132.739 197.49 133.152 197.472 133.565C197.451 133.715 197.46 133.868 197.499 134.014C197.539 134.16 197.608 134.297 197.703 134.416L197.855 135.798L197.917 136.298Z" fill="#65617D"/>
<path d="M215.541 138.652C215.44 139.059 215.311 139.79 215.262 140.133L215.232 140.322C215.232 140.322 214.541 141.822 210.769 142.369C206.996 142.915 206.985 141.106 206.985 141.106C206.985 141.106 206.998 140.912 207.021 140.62C207.088 139.822 207.224 138.294 207.326 137.969C207.459 137.527 207.222 135.582 207.222 135.582L207.183 133.552L207.153 132.142L213.428 131.492C213.466 131.961 213.534 132.427 213.631 132.888C213.669 133.144 213.763 133.389 213.905 133.605C214.246 133.98 214.449 135.651 214.449 135.651C214.449 135.651 215.677 138.105 215.541 138.652Z" fill="#65617D"/>
<path opacity="0.1" d="M197.099 131.111C197.099 131.111 197.242 131.717 197.355 132.337C196.444 132.505 192.467 133.194 191.474 132.712C190.347 132.166 187.927 131.86 187.927 131.86L187.966 131.721C188.333 131.288 188.676 130.836 188.676 130.836L197.099 131.111Z" fill="black"/>
<path opacity="0.1" d="M213.631 132.888C212.041 132.619 208.561 133.271 207.179 133.552L207.149 132.142L213.424 131.492C213.464 131.961 213.533 132.427 213.631 132.888Z" fill="black"/>
<path d="M217.168 81.2057L217.032 86.0128C217.032 86.0128 217.203 93.3432 216.691 94.5023C216.18 95.6615 216.18 100.333 216.18 100.333C216.18 100.333 216.521 102.547 216.145 103.024C215.769 103.501 216.044 105.273 216.316 106.195C216.587 107.117 216.35 109.401 216.35 109.401L216.281 122.287C216.281 122.287 215.908 125.626 215.428 126.105C215.291 126.247 215.193 126.422 215.145 126.614C215.098 126.805 215.101 127.006 215.156 127.195C215.156 127.195 214.749 129.104 214.85 129.447C214.951 129.79 215.156 130.571 214.373 130.945C213.589 131.318 213.792 132.514 213.792 132.514C211.919 132.069 206.6 133.265 206.6 133.265C206.025 132.081 205.524 130.862 205.1 129.615C205.008 129.363 204.971 129.094 204.992 128.826C205.013 128.559 205.09 128.298 205.219 128.063C205.348 127.828 205.526 127.623 205.741 127.462C205.955 127.3 206.202 127.187 206.464 127.129C207.178 127.025 205.952 125.764 205.952 125.764C205.952 125.764 206.088 125.594 205.747 124.368C205.406 123.142 205.814 119.989 205.918 119.183C206.022 118.376 206.531 114.41 206.531 114.41C206.531 114.41 206.259 109.401 206.464 109.195C206.669 108.99 207.349 107.013 207.01 106.366C206.671 105.718 206.121 101.457 206.121 101.217C206.121 100.978 205.681 95.4564 205.681 95.4564C205.681 95.4564 205.27 91.6033 205.374 90.7853C205.478 89.9672 205.1 86.9345 205.1 86.9345C205.1 84.3996 203.634 81.6827 203.634 81.6827L203.597 81.7818L200.438 90.1054C200.438 90.1054 199.926 92.6265 199.484 94.0576C199.204 95.0307 198.982 96.0195 198.818 97.0188L198.788 97.2008C198.788 97.2769 198.765 97.3414 198.758 97.3921L198.737 97.5304C198.737 97.5304 198.968 99.337 198.599 99.9178C198.23 100.498 197.816 102.236 197.816 102.713C197.816 103.19 197.85 105.031 197.85 105.031C197.85 105.031 197.986 108.679 197.62 109.089C197.253 109.5 197.447 109.838 197.447 109.838C197.447 109.838 198.06 112.604 197.788 113.316C197.516 114.028 197.721 115.701 197.721 115.701C197.721 115.701 197.175 120.987 197.108 121.259C197.041 121.531 196.663 123.647 197.073 123.817C197.484 123.988 198.265 125.009 198.265 125.009C198.265 125.009 198.438 129.477 197.822 129.816C197.207 130.154 197.548 131.89 197.548 131.89C197.548 131.89 192.607 132.844 191.483 132.297C190.358 131.751 187.936 131.445 187.936 131.445L188.275 130.325C188.254 130.364 188.029 130.728 187.867 129.332C187.699 127.866 189.13 128.58 189.13 128.58C189.13 128.58 190.255 128.855 188.439 127.083C186.623 125.31 187.517 123.501 187.621 123.501C187.724 123.501 187.964 120.879 187.964 120.879C187.964 120.879 188.271 119.31 188.031 118.081C187.791 116.853 187.588 113.035 187.588 113.035C187.588 113.035 187.759 110.138 187.452 109.083C187.146 108.027 187.655 106.114 187.759 105.672C187.863 105.229 187.441 101.183 187.441 101.183C187.441 101.183 187.782 99.2748 187.577 97.8783C187.372 96.4818 187.782 91.3314 187.782 91.3314L188.395 85.3998C188.395 85.3998 188.837 83.5562 188.771 82.8073C188.704 82.0583 189.284 79.4336 189.284 79.4336C189.25 78.8746 189.343 78.3151 189.556 77.7974C189.897 77.1061 190.033 74.8662 190.033 74.8662L193.308 67.3652L194.921 60.7515L216.567 60.5464C216.567 60.5464 216.647 61.1202 216.779 62.1595C216.91 63.1988 217.094 64.7428 217.3 66.6485C217.489 68.3792 217.696 70.414 217.896 72.6793C218.551 79.9106 217.168 81.2057 217.168 81.2057Z" fill="#3F3D56"/>
<path d="M215.166 21.5114L210.119 26.8992C210.119 26.8992 203.643 24.3067 204.325 23.4218C204.588 23.0784 204.556 21.9953 204.395 20.8016C204.164 18.912 203.643 16.7389 203.643 16.7389C203.643 16.7389 214.96 14.8953 214.013 16.8057C213.665 17.497 213.725 18.3174 213.942 19.071C214.216 19.9449 214.629 20.7689 215.166 21.5114Z" fill="#FBBEBE"/>
<path opacity="0.1" d="M214.006 16.8108C213.658 17.5021 213.492 17.5758 213.709 18.3294C212.23 19.9125 210.347 21.6501 208.006 21.6501C206.753 21.652 205.516 21.3625 204.395 20.8044C204.164 18.9147 203.643 16.7416 203.643 16.7416C203.643 16.7416 214.96 14.8981 214.006 16.8108Z" fill="black"/>
<path d="M216.122 13.328C216.086 15.4566 215.215 17.4858 213.697 18.9784C212.179 20.4711 210.136 21.3075 208.007 21.3075C205.878 21.3075 203.834 20.4711 202.316 18.9784C200.798 17.4858 199.927 15.4566 199.892 13.328C199.892 13.2888 199.892 13.2497 199.892 13.2128C199.907 11.0608 200.776 9.00309 202.309 7.49224C203.068 6.74414 203.966 6.15282 204.954 5.75205C205.941 5.35127 206.998 5.14889 208.063 5.15645C209.129 5.16402 210.182 5.38139 211.164 5.79614C212.145 6.21089 213.036 6.81491 213.784 7.57371C214.532 8.33251 215.123 9.23123 215.524 10.2186C215.925 11.2059 216.127 12.2625 216.119 13.328H216.122Z" fill="#FBBEBE"/>
<path opacity="0.1" d="M217.295 66.8584C216.221 66.8584 212.642 66.8976 208.642 66.9598H208.593L207.273 66.9828H207.231C202.489 67.0589 197.813 66.1325 195.94 66.3076C191.953 66.681 197.373 62.6205 197.373 62.6205C200.345 63.3429 203.403 63.653 206.459 63.5423L207.612 63.4824C211.234 63.2773 214.878 62.9362 216.781 62.3647C216.908 63.4202 217.09 64.9526 217.295 66.8584Z" fill="black"/>
<path d="M217.295 66.654C216.221 66.654 212.642 66.6931 208.642 66.7554H208.593L207.273 66.7784H207.231C202.489 66.8544 197.813 65.9281 195.94 66.1032C191.953 66.4788 197.373 62.4161 197.373 62.4161C200.345 63.1384 203.403 63.4486 206.459 63.3379L207.612 63.278C211.234 63.0729 214.878 62.7318 216.781 62.1626C216.908 63.218 217.09 64.7436 217.295 66.654Z" fill="#5F5D7E"/>
<path opacity="0.1" d="M205.826 23.7606L199.553 26.6942L194.714 64.1252C194.714 64.1252 197.576 62.8301 199.214 63.6482C200.853 64.4663 205.897 63.7173 205.897 63.7173C205.897 63.7173 209.584 63.5122 210.126 63.9224C210.668 64.3326 217.076 62.2079 217.076 62.2079C217.076 62.2079 218.228 59.6177 217.348 59.2122C216.468 58.8066 217.629 54.7853 217.629 54.7853L217.076 27.7842L215.984 24.3068L213.053 22.5347L210.057 24.9198L208.626 25.1249L205.826 23.7606Z" fill="black"/>
<path d="M205.826 23.3533L199.553 26.2845L194.714 63.7179C194.714 63.7179 197.576 62.4228 199.214 63.2408C200.853 64.0589 205.897 63.3077 205.897 63.3077C205.897 63.3077 209.584 63.1049 210.126 63.5128C210.668 63.9207 217.081 61.8075 217.081 61.8075C217.081 61.8075 218.233 59.2173 217.353 58.8117C216.472 58.4061 217.629 54.3734 217.629 54.3734L217.076 27.3745L215.984 23.8994L213.053 22.125L210.057 24.5124L208.626 24.7175L205.826 23.3533Z" fill="#E7EFFD"/>
<path opacity="0.1" d="M205.722 25.0903C205.722 25.0903 207.529 27.238 207.496 27.6827C207.464 28.1275 207.393 29.1829 207.393 29.1829L206.028 31.9483C206.028 31.9483 205.28 35.3911 205.28 36.1078C205.28 36.8245 204.086 43.0211 204.086 43.0211L202.65 52.5684L200.844 65.0815L202.687 68.2501L204.867 66.4066L207.766 44.1088L208.379 39.7119C208.379 39.7119 209.027 31.8031 209.027 30.985C209.027 30.1669 208.653 28.0192 208.653 28.0192C208.653 28.0192 209.096 25.9729 210.937 25.4843C212.778 24.9958 210.801 25.3806 210.801 25.3806L209.743 24.5303L208.821 24.9036C208.821 24.9036 206.268 24.1362 205.722 25.0903Z" fill="black"/>
<path d="M205.517 24.8875C205.517 24.8875 207.326 27.0352 207.291 27.4777C207.257 27.9201 207.188 28.9778 207.188 28.9778L205.826 31.7432C205.826 31.7432 205.075 35.186 205.075 35.9027C205.075 36.6194 203.881 42.816 203.881 42.816L202.45 52.361L200.643 64.8741L202.487 68.045L204.669 66.2015L207.566 43.906L208.181 39.5114C208.181 39.5114 208.828 31.6026 208.828 30.7845C208.828 29.9665 208.455 27.8187 208.455 27.8187C208.455 27.8187 208.898 25.7724 210.739 25.2954C212.58 24.8183 210.603 25.194 210.603 25.194L209.545 24.3413L208.623 24.7169C208.623 24.7169 206.063 23.9311 205.517 24.8875Z" fill="#A1060D"/>
<path opacity="0.1" d="M204.326 21.3062C204.326 21.3062 204.051 21.5112 203.985 22.8755C203.918 24.2397 202.961 27.3069 202.961 27.3069C202.961 27.3069 206.508 24.8527 208.28 25.1246L204.326 21.3062Z" fill="black"/>
<path d="M204.326 20.8989C204.326 20.8989 204.051 21.1017 203.985 22.4659C203.918 23.8302 202.961 26.8974 202.961 26.8974C202.961 26.8974 206.508 24.4432 208.28 24.7174L204.326 20.8989Z" fill="#E7EFFD"/>
<path opacity="0.1" d="M214.006 20.2158L208.411 25.1243C208.411 25.1243 213.117 27.9196 213.73 28.6017C214.343 29.2838 214.956 21.9188 214.956 21.9188L214.006 20.2158Z" fill="black"/>
<path d="M214.212 19.8062L208.621 24.7169C208.621 24.7169 213.324 27.5122 213.942 28.1943C214.56 28.8764 215.168 21.5114 215.168 21.5114L214.212 19.8062Z" fill="#E7EFFD"/>
<path opacity="0.1" d="M204.528 21.307C204.528 21.307 203.915 21.0005 203.337 21.8877C202.911 22.4661 202.332 22.9145 201.666 23.1828C201.666 23.1828 195.46 24.1714 195.214 24.9895L192.315 25.1601C192.315 25.1601 191.291 25.296 191.19 27.4438C191.089 29.5915 190.543 29.7966 190.543 29.7966C190.543 29.7966 189.349 31.9098 189.452 32.9998C189.556 34.0898 188.531 34.6382 188.531 34.6382L192.792 45.718C192.792 45.718 192.93 50.2854 192.144 51.9561C191.358 53.6268 189.895 61.0241 189.895 61.0241C189.895 61.0241 190.508 60.8881 190.473 61.296C190.439 61.7039 189.745 66.1722 189.745 66.1722C189.745 66.1722 189.54 67.9443 189.199 68.5596C188.858 69.1749 188.823 72.3758 188.823 72.3758L188.28 74.694C188.28 74.694 189.575 77.593 191.552 77.1828C193.529 76.7726 197.108 69.0366 197.108 69.0366L199.394 60.683L201.166 52.4331L201.678 46.8425L202.496 34.4677L203.689 26.2846C203.689 26.2846 205.007 21.8808 204.528 21.307Z" fill="black"/>
<path d="M204.325 20.8985C204.325 20.8985 203.71 20.592 203.132 21.4769C202.706 22.056 202.128 22.5046 201.461 22.772C201.461 22.772 195.257 23.7606 195.009 24.5787L192.11 24.7492C192.11 24.7492 191.089 24.8875 190.985 27.0352C190.881 29.183 190.337 29.3858 190.337 29.3858C190.337 29.3858 189.144 31.5012 189.247 32.5912C189.351 33.6812 188.326 34.2274 188.326 34.2274L192.589 45.3071C192.589 45.3071 192.725 49.8745 191.941 51.5453C191.158 53.216 189.69 60.6155 189.69 60.6155C189.69 60.6155 190.303 60.4773 190.271 60.8875C190.238 61.2977 189.519 65.7614 189.519 65.7614C189.519 65.7614 189.314 67.5358 188.973 68.1488C188.632 68.7617 188.6 71.9672 188.6 71.9672L188.054 74.2855C188.054 74.2855 189.349 77.1822 191.326 76.7743C193.303 76.3664 196.889 68.6258 196.889 68.6258L199.173 60.2745L200.945 52.0246L201.456 46.4317L202.274 34.0569L203.468 25.8761C203.468 25.8761 204.802 21.4769 204.325 20.8985Z" fill="#65617D"/>
<path opacity="0.1" d="M182.438 47.2838L180.46 48.648C180.46 48.648 177.437 48.7448 175.275 48.2125L174.176 47.724L173.946 47.6272L174.176 47.6986C175.317 48.0374 176.209 48.0305 176.907 47.7954C179.705 46.8529 179.396 42.2325 179.287 41.1886C179.287 41.0826 179.269 41.0157 179.264 40.9904C179.264 40.9858 179.264 40.9812 179.264 40.9766L179.281 41.0042C179.319 41.0672 179.362 41.1272 179.41 41.184C179.449 41.2277 179.49 41.2738 179.534 41.3176L180.523 43.2925C180.523 43.2925 180.523 43.3202 180.523 43.3755L182.438 47.2838Z" fill="black"/>
<path d="M189.285 33.9561L188.328 34.228L188.192 36.1706C188.192 36.1706 187.068 36.0001 186.761 37.3228C186.455 38.6456 185.909 39.2678 185.909 39.2678C185.909 39.2678 184.033 40.8348 183.931 42.1645L182.779 42.8812C182.779 42.8812 180.085 42.2659 179.472 41.1759C179.472 41.1759 180.7 49.9719 174.154 47.8242C174.154 47.8242 181.484 51.0274 181.825 51.4721C182.166 51.9169 184.415 53.2097 186.462 52.1197C188.508 51.0297 188.95 49.3543 188.95 49.3543C188.95 49.3543 190.928 46.589 190.994 46.1834C191.061 45.7778 192.608 45.2962 192.608 45.2962L195.539 38.2054L189.285 33.9561Z" fill="#65617D"/>
<path opacity="0.1" d="M213.223 24.3067L214.212 19.8062C214.212 19.8062 214.654 21.2718 215.099 21.6128L216.565 22.7397C216.565 22.7397 218.03 23.4195 218.542 23.4195C219.053 23.4195 221.814 24.1362 222.155 24.5118C222.496 24.8874 223.86 24.6132 223.86 24.6132C223.86 24.6132 224.985 24.9888 225.974 25.2262C226.962 25.4636 227.439 27.102 227.234 27.7611C227.151 28.0836 227.151 28.422 227.234 28.7445C227.318 29.0669 227.482 29.3629 227.711 29.6046C228.121 30.0148 228.326 31.3445 228.326 31.3445C228.826 31.5094 229.24 31.8646 229.479 32.3331C229.82 33.082 229.709 34.7182 229.709 34.7182L224.639 41.8781C224.639 41.8781 224.706 44.6434 224.503 45.2541C224.301 45.8648 225.218 56.2993 225.218 56.2993L226.275 74.2301C226.275 74.2301 224.877 75.4238 224.57 75.5598C224.264 75.6958 223.957 69.2203 223.957 68.9806C223.957 68.741 216.083 57.1842 216.083 57.1842C216.083 57.1842 215.025 55.4812 215.025 55.1102C215.025 54.7392 214.037 51.2917 214.037 51.2917L212.536 44.6434L213.223 24.3067Z" fill="black"/>
<path d="M230.145 34.3241C230.145 34.5546 230.145 34.7159 230.145 34.7159L225.075 41.8597C225.075 41.8597 225.144 44.625 224.941 45.2334C224.821 45.5905 225.082 49.2592 225.324 52.2734C225.494 54.4465 225.655 56.2785 225.655 56.2785L226.105 63.8832L226.711 74.2071C226.711 74.2071 225.314 75.4008 225.008 75.5368C224.701 75.6727 224.395 69.1972 224.395 68.9576C224.395 68.7179 216.518 57.1634 216.518 57.1634C216.518 57.1634 215.461 55.4559 215.461 55.0895C215.461 54.723 214.472 51.271 214.472 51.271L212.974 44.6227L213.654 24.3044L214.212 19.8062C214.212 19.8062 215.064 21.2741 215.507 21.6128L216.972 22.7374C216.972 22.7374 218.438 23.4287 218.95 23.4287C219.461 23.4287 222.224 24.1431 222.565 24.5187C222.906 24.8944 224.268 24.6201 224.268 24.6201C224.268 24.6201 225.393 24.9958 226.381 25.2331C227.37 25.4705 227.849 27.1089 227.644 27.768C227.561 28.0905 227.56 28.429 227.644 28.7516C227.727 29.0741 227.892 29.3701 228.121 29.6115C228.529 30.0194 228.734 31.3491 228.734 31.3491C229.233 31.5154 229.647 31.8713 229.886 32.34C230.131 32.8355 230.154 33.7826 230.145 34.3241Z" fill="#65617D"/>
<path opacity="0.1" d="M188.473 125.151C188.641 125.151 195.801 125.423 195.665 126.582C195.529 127.741 188.473 125.151 188.473 125.151Z" fill="black"/>
<path opacity="0.1" d="M190.075 127.094C190.075 127.094 194.882 127.878 193.619 128.594C192.356 129.311 190.075 127.094 190.075 127.094Z" fill="black"/>
<path opacity="0.1" d="M207.95 124.399C207.95 124.399 215.928 125.091 214.735 125.969C213.541 126.847 210.711 126.99 210.587 127.024C210.462 127.059 207.95 124.399 207.95 124.399Z" fill="black"/>
<path opacity="0.1" d="M206.985 127.913C206.985 127.913 211.416 128.662 211.552 129.526C211.688 130.39 206.985 127.913 206.985 127.913Z" fill="black"/>
<path opacity="0.1" d="M209.439 107.389C209.439 107.389 213.495 108.343 213.734 109.002L209.439 107.389Z" fill="black"/>
<path opacity="0.1" d="M193.789 110.32C193.789 110.32 191.676 110.933 193.723 112.163C195.769 113.394 193.789 110.32 193.789 110.32Z" fill="black"/>
<path opacity="0.1" d="M203.166 77.5583C203.397 77.5583 207.121 76.3323 208.416 76.8669C209.343 77.2151 210.322 77.4014 211.312 77.4177L203.166 77.5583Z" fill="black"/>
<path opacity="0.1" d="M203.643 81.4428L203.607 81.7816L200.438 90.1052C200.438 90.1052 199.926 92.6263 199.484 94.0574C199.204 95.0305 198.982 96.0193 198.818 97.0186L201.632 79.5693L203.643 81.4428Z" fill="black"/>
<path d="M208.593 66.7554L207.273 66.7784H207.231L206.457 63.3425L207.609 63.2803L208.593 66.7554Z" fill="#3F3D56"/>
<path d="M224.678 62.5927L223.828 63.284L220.996 65.6184C220.996 65.6184 213.324 69.7111 211.211 65.8235C209.349 62.3991 218.046 59.9541 220.141 59.4218C220.424 59.3503 220.586 59.3135 220.586 59.3135L224.678 62.5927Z" fill="#FBBEBE"/>
<path opacity="0.1" d="M191.916 29.0796C191.916 29.0796 193.416 29.7709 193.76 30.7157C194.103 31.6606 191.916 29.0796 191.916 29.0796Z" fill="black"/>
<path opacity="0.1" d="M187.28 39.3066C187.28 39.3066 185.097 41.966 185.985 42.9937C186.872 44.0215 187.28 39.3066 187.28 39.3066Z" fill="black"/>
<path opacity="0.1" d="M226.28 30.5791C226.28 30.5791 224.233 30.7842 224.167 32.5563L226.28 30.5791Z" fill="black"/>
<path opacity="0.1" d="M207.326 58.5348C207.528 58.3297 212.234 51.3749 213.317 51.9902L207.326 58.5348Z" fill="black"/>
<path opacity="0.1" d="M216.122 13.328C216.124 14.6646 215.794 15.9807 215.161 17.158L215.101 17.1465C214.587 17.0382 214.32 16.439 213.926 16.0657C213.684 15.8353 213.376 15.6865 213.045 15.6402C212.715 15.5939 212.378 15.6525 212.082 15.8076C211.784 15.9866 211.542 16.245 211.382 16.5539C211.223 16.8628 211.152 17.21 211.179 17.5567C210.918 16.4643 211.001 15.3052 210.748 14.2106C210.494 13.116 209.732 12.0099 208.685 11.9914C208.224 11.9914 207.711 12.155 207.383 11.8186C207.187 11.6158 207.153 11.2955 207.001 11.0466C206.254 9.83908 203.98 10.4498 203.051 11.0697C202.122 11.6895 201.046 12.6828 199.892 13.2128C199.907 11.0608 200.776 9.00309 202.309 7.49224C203.068 6.74414 203.966 6.15282 204.954 5.75205C205.941 5.35127 206.998 5.14889 208.063 5.15645C209.129 5.16402 210.182 5.38139 211.164 5.79614C212.145 6.21089 213.036 6.81491 213.784 7.57371C214.532 8.33251 215.123 9.23123 215.524 10.2186C215.925 11.2059 216.127 12.2625 216.119 13.328H216.122Z" fill="black"/>
<path d="M207.003 10.8442C207.151 11.0908 207.19 11.4111 207.386 11.6139C207.711 11.9527 208.238 11.7775 208.688 11.7867C209.734 11.8052 210.497 12.9113 210.75 14.0059C211.004 15.1005 210.921 16.2596 211.181 17.352C211.154 17.005 211.225 16.6574 211.385 16.3484C211.545 16.0394 211.788 15.7812 212.087 15.6029C212.382 15.4478 212.719 15.3892 213.05 15.4355C213.381 15.4818 213.689 15.6306 213.93 15.861C214.324 16.2343 214.592 16.8335 215.106 16.9418C215.619 17.0501 216.115 16.5569 216.302 16.02C216.488 15.4831 216.474 14.8839 216.597 14.3216C216.827 13.2593 217.518 12.3859 217.905 11.3742C218.362 10.1441 218.35 8.78892 217.871 7.56729C217.615 6.92666 217.235 6.35055 216.974 5.71222C216.583 4.73974 216.481 3.63822 216.002 2.71645C215.2 1.16556 213.31 0.391265 211.755 0.974288C211.015 1.25082 210.372 1.79006 209.619 2.03203C208.612 2.35695 207.533 2.11268 206.492 1.9675C205.45 1.82232 204.295 1.8085 203.457 2.49291C202.491 3.28334 202.228 4.7674 201.32 5.63387C200.94 5.99797 200.468 6.23072 200.067 6.55564C199.666 6.88057 199.318 7.39216 199.375 7.93831C199.435 8.64347 200.127 9.2841 199.871 9.93856C199.779 10.1284 199.65 10.2983 199.493 10.4386C198.734 11.2344 198.169 12.1951 197.843 13.2454C199.666 13.8169 201.641 11.8052 203.069 10.8534C203.984 10.2474 206.257 9.63438 207.003 10.8442Z" fill="#7C5C5C"/>
<path opacity="0.1" d="M224.678 62.5927L223.828 63.284C223.079 62.0396 220.007 59.5508 220.007 59.5508L220.141 59.4218C220.424 59.3503 220.586 59.3135 220.586 59.3135L224.678 62.5927Z" fill="black"/>
<path d="M225.496 61.3298C225.496 61.3298 225.19 62.0903 224.877 62.7447C224.563 63.3992 224.218 63.9983 224.201 63.5121C224.167 62.5581 220.212 59.3526 220.212 59.3526L220.749 58.8318L221.369 58.228L225.496 61.3298Z" fill="#E7EFFD"/>
<path opacity="0.1" d="M225.632 56.2834L226.082 63.8881C225.022 62.2404 222.114 58.0187 220.245 58.1546L224.773 52.9443C224.961 52.7345 225.135 52.5119 225.294 52.2783C225.464 54.4514 225.632 56.2834 225.632 56.2834Z" fill="black"/>
<path opacity="0.1" d="M225.496 61.33C225.496 61.33 225.19 62.0905 224.877 62.7449C223.687 61.1157 222.054 59.1915 220.749 58.8274L221.369 58.2236L225.496 61.33Z" fill="black"/>
<path d="M228.905 33.75L230.133 34.704C230.133 34.704 232.177 34.7386 232.382 36.4439C232.588 38.1492 234.456 38.9327 234.456 38.9327C234.456 38.9327 235.853 40.3292 235.853 40.9767C235.853 41.6243 236.911 42.7834 236.911 42.8871C236.911 42.9908 237.934 45.0694 237.796 45.4427C237.657 45.8161 238.888 47.4545 238.512 48.0675C238.204 48.6183 237.931 49.1878 237.694 49.7728C237.694 49.7728 236.093 52.8423 235.274 53.4207C234.456 53.9991 230.705 58.8753 230.705 58.8753C230.705 58.8753 226.684 63.5119 226.684 64.9429C226.684 64.9429 222.766 58.3983 220.443 58.5688L224.978 53.3516C224.978 53.3516 225.762 52.5012 225.796 51.9896C225.831 51.4781 227.979 49.1252 229.002 49.0238C229.002 49.0238 229.17 47.625 228.728 47.5905C228.285 47.5559 227.909 46.4659 227.909 46.4659C227.909 46.4659 224.914 42.9217 224.875 40.6702C224.835 38.4188 228.905 33.75 228.905 33.75Z" fill="#65617D"/>
<path opacity="0.1" d="M230.711 36.9878C230.711 36.9878 227.849 39.1033 228.462 39.7831C229.075 40.4629 230.711 36.9878 230.711 36.9878Z" fill="black"/>
<path opacity="0.1" d="M230.847 45.7174C230.847 45.7174 236.166 44.0121 236.712 45.7174H230.847Z" fill="black"/>
<path opacity="0.1" d="M197.917 136.298C197.917 136.298 195.053 138.174 193.621 137.911C192.19 137.648 190.722 138.39 190.722 138.39C189.736 139.468 188.492 140.277 187.107 140.743C184.802 141.527 181.553 141.218 179.712 140.605C178.841 140.314 178.769 139.941 179.189 139.478C181.191 139.877 185.664 140.672 186.869 140.093C188.436 139.342 190.688 137.706 190.688 137.706C190.688 137.706 193.621 137.298 194.029 137.298C194.32 137.298 196.585 136.362 197.864 135.828L197.917 136.298Z" fill="black"/>
<path opacity="0.1" d="M215.262 140.133L215.232 140.322C215.232 140.322 214.541 141.822 210.769 142.368C206.996 142.914 206.985 141.105 206.985 141.105C206.985 141.105 206.998 140.912 207.021 140.619C208.22 141.073 210.833 141.58 215.262 140.133Z" fill="black"/>
<path opacity="0.1" d="M193.331 36.5806C193.331 36.5806 193.331 44.3534 192.665 45.1208C191.999 45.8882 193.331 36.5806 193.331 36.5806Z" fill="black"/>
<path opacity="0.1" d="M224.063 39.085L225.052 41.8641C225.052 41.8641 225.446 39.1357 224.063 39.085Z" fill="black"/>
<g opacity="0.1">
<path opacity="0.1" d="M199.959 9.28669C200.207 8.64605 199.553 8.01924 199.468 7.33252C199.381 7.52624 199.344 7.73846 199.359 7.95011C199.403 8.46631 199.783 8.94793 199.885 9.42726C199.913 9.38261 199.938 9.33558 199.959 9.28669Z" fill="black"/>
<path opacity="0.1" d="M211.274 16.6288C211.029 15.5549 211.101 14.4165 210.852 13.3404C210.603 12.2642 209.836 11.1396 208.792 11.1212C208.331 11.1212 207.815 11.2871 207.49 10.9507C207.291 10.7479 207.259 10.4252 207.105 10.1787C206.358 8.96884 204.086 9.58182 203.155 10.2017C201.772 11.1235 199.846 13.0661 198.058 12.6283C197.972 12.8334 197.894 13.0431 197.827 13.2574C199.65 13.8289 201.625 11.8171 203.054 10.8654C203.975 10.2478 206.257 9.63481 207.003 10.8446C207.151 11.0912 207.19 11.4115 207.386 11.6143C207.711 11.9531 208.239 11.778 208.688 11.7872C209.734 11.8056 210.497 12.9117 210.75 14.0063C211.004 15.1009 210.921 16.2601 211.181 17.3524C211.165 17.1075 211.196 16.8617 211.274 16.6288Z" fill="black"/>
<path opacity="0.1" d="M216.399 15.3516C216.214 15.8908 215.728 16.3886 215.203 16.2734C214.677 16.1582 214.422 15.5659 214.03 15.1903C213.787 14.9624 213.479 14.8155 213.149 14.7697C212.818 14.7239 212.482 14.7815 212.186 14.9345C211.902 15.1039 211.668 15.3462 211.509 15.6363C211.35 15.9264 211.271 16.2537 211.281 16.5845C211.419 16.1682 211.705 15.8172 212.085 15.5982C212.381 15.4431 212.717 15.3845 213.048 15.4308C213.379 15.4771 213.687 15.6259 213.928 15.8563C214.322 16.2296 214.59 16.8287 215.104 16.9371C215.618 17.0454 216.113 16.5522 216.3 16.0153C216.397 15.6964 216.459 15.3681 216.486 15.0359C216.464 15.1429 216.435 15.2484 216.399 15.3516Z" fill="black"/>
<path opacity="0.1" d="M218.002 10.706C217.62 11.7176 216.924 12.5887 216.694 13.6533C216.647 13.8677 216.62 14.0866 216.594 14.3078C216.825 13.2478 217.516 12.379 217.901 11.3697C218.071 10.9156 218.177 10.4402 218.217 9.95703C218.164 10.2117 218.093 10.4621 218.002 10.706Z" fill="black"/>
</g>
<path d="M168.736 35.3904C168.781 35.3904 168.818 35.3534 168.818 35.3078C168.818 35.2621 168.781 35.2251 168.736 35.2251C168.69 35.2251 168.653 35.2621 168.653 35.3078C168.653 35.3534 168.69 35.3904 168.736 35.3904Z" fill="#E6E8EC"/>
<path opacity="0.1" d="M198.173 142.469C209.161 142.469 218.069 141.56 218.069 140.438C218.069 139.317 209.161 138.408 198.173 138.408C187.184 138.408 178.276 139.317 178.276 140.438C178.276 141.56 187.184 142.469 198.173 142.469Z" fill="#AB2656"/>
<path d="M125.009 7.26793L64.7458 46.3651L104.073 117.296C104.257 117.627 104.508 117.917 104.809 118.147C105.111 118.378 105.456 118.543 105.825 118.632L141.458 127.325C142.069 127.472 142.712 127.406 143.28 127.138C143.847 126.869 144.306 126.413 144.579 125.848L162.254 89.1263L181.625 63.2313L135.656 8.84648C134.377 7.3338 132.59 6.33911 130.63 6.04856C128.671 5.75801 126.672 6.19151 125.009 7.26793Z" fill="#DCDFED"/>
<path opacity="0.1" d="M182.237 63.5375L182.067 63.7679L170.72 78.9381L170.515 79.2123L162.866 89.4371L147.749 120.849L147.325 121.727L145.191 126.158C144.918 126.725 144.459 127.181 143.89 127.45C143.322 127.719 142.678 127.784 142.066 127.636L106.433 118.939C106.064 118.849 105.718 118.684 105.417 118.454C105.115 118.224 104.865 117.934 104.681 117.602L101.255 111.433L100.639 110.322L75.9059 65.6945L75.6939 65.3142L65.3562 46.6713L66.6052 45.8601L76.0742 39.7188L76.2931 39.5759L96.2334 26.6388L97.4916 25.823L125.617 7.57414C127.28 6.49567 129.28 6.06077 131.241 6.35094C133.201 6.64112 134.989 7.63646 136.268 9.15038L157.239 33.9692L158.161 35.0753L173.381 53.0822L173.464 53.1813L181.117 62.2332L182.081 63.3739L182.237 63.5375Z" fill="black"/>
<path opacity="0.1" d="M172.875 52.8749L171.017 65.7798L170.457 69.6743L170.137 77.9703L170.112 78.6178L168.445 121.964C168.429 122.367 168.325 122.76 168.14 123.118C167.955 123.475 167.694 123.788 167.375 124.033C167.057 124.279 166.688 124.451 166.295 124.539C165.902 124.626 165.495 124.626 165.102 124.538L147.141 120.529L146.947 120.485L100.884 110.205L100.038 110.016L74.7146 104.361L75.2953 65.388L75.3138 64.086L75.4889 52.2896L75.6825 39.2695L95.6228 26.3324L96.881 25.5166C115.376 27.4132 139.974 31.0611 156.637 33.6628L157.559 34.7689L172.769 52.7758L172.875 52.8749Z" fill="black"/>
<path d="M174.979 37.5738L172.792 52.7831L170.787 66.7111L170.227 70.5964L169.906 78.8924L168.215 122.886C168.199 123.289 168.095 123.682 167.91 124.04C167.725 124.397 167.464 124.71 167.145 124.955C166.826 125.201 166.457 125.373 166.064 125.461C165.671 125.548 165.264 125.548 164.871 125.461L146.717 121.407L100.653 111.127L74.4841 105.283L75.0833 65.0081L75.2584 53.2117L75.4635 39.4127L75.6732 25.2196C80.001 25.0145 87.1217 25.4777 95.6228 26.3327C114.657 28.2431 140.605 32.1076 157.571 34.7692C167.959 36.3985 174.979 37.5738 174.979 37.5738Z" fill="#A1060D"/>
<path opacity="0.1" d="M180.528 61.9272L170.787 66.7044L121.073 91.0853L75.2584 53.2211L65.9968 45.5542L64.7478 46.3654L75.0855 65.0083L74.4864 105.283L100.656 111.127L104.075 117.296C104.259 117.628 104.509 117.918 104.811 118.148C105.112 118.378 105.458 118.543 105.827 118.633L141.46 127.325C142.071 127.472 142.713 127.406 143.28 127.137C143.847 126.868 144.306 126.413 144.578 125.848L146.712 121.416L164.867 125.47C165.259 125.557 165.667 125.557 166.06 125.47C166.452 125.383 166.821 125.21 167.14 124.965C167.459 124.719 167.72 124.407 167.905 124.049C168.09 123.692 168.194 123.298 168.21 122.896L169.902 78.9018L181.454 63.462L181.486 63.0726L180.528 61.9272Z" fill="black"/>
<path d="M64.7453 46.3643L60.6365 116.726C60.5985 117.377 60.7935 118.02 61.1866 118.541C61.5797 119.062 62.1452 119.425 62.7819 119.567L171.902 143.798C172.284 143.882 172.681 143.883 173.064 143.801C173.447 143.719 173.808 143.557 174.123 143.324C174.438 143.091 174.699 142.793 174.89 142.451C175.08 142.109 175.195 141.73 175.227 141.34L181.622 63.2305L121.073 92.9278L64.7453 46.3643Z" fill="#DCDFED"/>
<path opacity="0.1" d="M61.3878 118.337L118.077 83.362C118.916 82.853 119.909 82.6571 120.879 82.8089C121.849 82.9607 122.734 83.4504 123.377 84.1916L174.116 143.367C174.301 143.579 174.391 143.427 174.116 143.367L61.3878 118.337C61.0652 118.265 61.1067 118.505 61.3878 118.337Z" fill="black"/>
<path d="M61.7936 118.28L117.898 84.3885C118.784 83.8527 119.832 83.6473 120.856 83.8083C121.879 83.9694 122.813 84.4866 123.493 85.2688L173.773 143.094C173.857 143.19 173.907 143.31 173.919 143.437C173.93 143.564 173.901 143.691 173.836 143.8C173.771 143.91 173.673 143.996 173.556 144.046C173.44 144.097 173.31 144.11 173.186 144.083L61.9757 119.388C61.8572 119.363 61.7493 119.302 61.6658 119.214C61.5823 119.126 61.5271 119.016 61.5075 118.896C61.4879 118.776 61.5046 118.654 61.5557 118.544C61.6067 118.434 61.6896 118.342 61.7936 118.28Z" fill="#E3E5F1"/>
<defs>
<linearGradient id="paint0_linear_671:1956" x1="203.915" y1="142.776" x2="203.915" y2="-0.000425506" gradientUnits="userSpaceOnUse">
<stop stop-color="#808080" stop-opacity="0.25"/>
<stop offset="0.54" stop-color="#808080" stop-opacity="0.12"/>
<stop offset="1" stop-color="#808080" stop-opacity="0.1"/>
</linearGradient>
</defs>
</svg>
