<svg width="22" height="24" viewBox="0 0 22 24" fill="none" xmlns="http://www.w3.org/2000/svg">
<path d="M18.6379 12.63V10.5345H17.0172V12.9655C17.0173 13.1804 17.1027 13.3865 17.2547 13.5384L19.4483 15.732V17.0172H1.62069V15.732L3.81429 13.5384C3.96627 13.3865 4.05168 13.1804 4.05172 12.9655V9.72414C4.04947 8.58544 4.34774 7.4663 4.91643 6.47977C5.48512 5.49324 6.30408 4.67426 7.29059 4.10554C8.2771 3.53681 9.39622 3.2385 10.5349 3.24071C11.6736 3.24293 12.7916 3.54561 13.7759 4.11817V2.30705C13.0045 1.96551 12.1841 1.74782 11.3448 1.66202V0H9.72414V1.66121C7.72629 1.86455 5.87481 2.80146 4.5277 4.29076C3.18059 5.78007 2.43355 7.71597 2.43103 9.72414V12.63L0.237431 14.8236C0.0854514 14.9756 4.58958e-05 15.1817 0 15.3966V17.8276C0 18.0425 0.0853754 18.2486 0.237345 18.4006C0.389314 18.5526 0.595428 18.6379 0.810345 18.6379H6.48276V19.4483C6.48276 20.5229 6.90964 21.5534 7.66948 22.3133C8.42933 23.0731 9.4599 23.5 10.5345 23.5C11.6091 23.5 12.6396 23.0731 13.3995 22.3133C14.1593 21.5534 14.5862 20.5229 14.5862 19.4483V18.6379H20.2586C20.4735 18.6379 20.6797 18.5526 20.8316 18.4006C20.9836 18.2486 21.069 18.0425 21.069 17.8276V15.3966C21.0689 15.1817 20.9835 14.9756 20.8315 14.8236L18.6379 12.63ZM12.9655 19.4483C12.9655 20.093 12.7094 20.7114 12.2535 21.1673C11.7976 21.6232 11.1792 21.8793 10.5345 21.8793C9.88973 21.8793 9.27139 21.6232 8.81548 21.1673C8.35958 20.7114 8.10345 20.093 8.10345 19.4483V18.6379H12.9655V19.4483Z" fill="white" fill-opacity="0.58"/>
<path d="M18.6379 8.91391C20.428 8.91391 21.8792 7.4627 21.8792 5.67253C21.8792 3.88237 20.428 2.43115 18.6379 2.43115C16.8477 2.43115 15.3965 3.88237 15.3965 5.67253C15.3965 7.4627 16.8477 8.91391 18.6379 8.91391Z" fill="#A1060D"/>
</svg>
