<svg width="17" height="17" viewBox="0 0 17 17" fill="none" xmlns="http://www.w3.org/2000/svg">
<path d="M14.875 3.11064H12.0527V2.31489C12.0527 1.66383 11.848 1.11525 11.4385 0.669149C11.029 0.22305 10.5254 0 9.92773 0H7.07227C6.47461 0 5.97103 0.22305 5.56152 0.669149C5.15202 1.11525 4.94727 1.66383 4.94727 2.31489V3.11064H2.125C1.52734 3.11064 1.02376 3.32766 0.614258 3.7617C0.204753 4.19574 0 4.75035 0 5.42553V8.5C0 9.00638 0.232422 9.25957 0.697266 9.25957V15.4447C0.697266 15.8546 0.841146 16.2163 1.12891 16.5298C1.41667 16.8433 1.7487 17 2.125 17H14.875C15.2513 17 15.5833 16.8433 15.8711 16.5298C16.1589 16.2163 16.3027 15.8546 16.3027 15.4447V9.25957C16.7676 9.25957 17 9.00638 17 8.5V5.42553C17 4.75035 16.7952 4.19574 16.3857 3.7617C15.9762 3.32766 15.4727 3.11064 14.875 3.11064ZM6.375 2.31489C6.375 2.09787 6.44141 1.91702 6.57422 1.77234C6.70703 1.62766 6.87305 1.55532 7.07227 1.55532H9.92773C10.127 1.55532 10.293 1.62766 10.4258 1.77234C10.5586 1.91702 10.625 2.09787 10.625 2.31489V3.11064H6.375V2.31489ZM2.125 15.4447V9.25957H6.375V11.5745C6.375 12.0085 6.51335 12.3762 6.79004 12.6777C7.06673 12.9791 7.4043 13.1298 7.80273 13.1298H9.19727C9.5957 13.1298 9.93327 12.9791 10.21 12.6777C10.4867 12.3762 10.625 12.0085 10.625 11.5745V9.25957H14.875V15.4447H2.125ZM7.80273 11.5745V9.25957H9.19727V11.5745H7.80273ZM15.5723 7.74043H1.42773V5.42553C1.42773 4.89504 1.66016 4.62979 2.125 4.62979H14.875C15.3398 4.62979 15.5723 4.89504 15.5723 5.42553V7.74043Z" fill="white"/>
</svg>
