<svg width="20" height="19" viewBox="0 0 20 19" fill="none" xmlns="http://www.w3.org/2000/svg">
<path d="M17.2727 19H2.72727C1.22364 19 0 17.4016 0 15.4375V3.5625C0 1.59837 1.22364 0 2.72727 0H17.2727C18.7764 0 20 1.59837 20 3.5625V15.4375C20 17.4016 18.7764 19 17.2727 19ZM2.72727 2.375C2.22636 2.375 1.81818 2.90819 1.81818 3.5625V15.4375C1.81818 16.0918 2.22636 16.625 2.72727 16.625H17.2727C17.7736 16.625 18.1818 16.0918 18.1818 15.4375V3.5625C18.1818 2.90819 17.7736 2.375 17.2727 2.375H2.72727ZM8.18182 13.0625H4.54545C4.30435 13.0625 4.07312 12.9374 3.90263 12.7147C3.73214 12.492 3.63636 12.1899 3.63636 11.875C3.63636 11.5601 3.73214 11.258 3.90263 11.0353C4.07312 10.8126 4.30435 10.6875 4.54545 10.6875H8.18182C8.42292 10.6875 8.65415 10.8126 8.82464 11.0353C8.99513 11.258 9.09091 11.5601 9.09091 11.875C9.09091 12.1899 8.99513 12.492 8.82464 12.7147C8.65415 12.9374 8.42292 13.0625 8.18182 13.0625ZM8.18182 8.3125H4.54545C4.30435 8.3125 4.07312 8.18739 3.90263 7.96469C3.73214 7.74199 3.63636 7.43994 3.63636 7.125C3.63636 6.81006 3.73214 6.50801 3.90263 6.28531C4.07312 6.06261 4.30435 5.9375 4.54545 5.9375H8.18182C8.42292 5.9375 8.65415 6.06261 8.82464 6.28531C8.99513 6.50801 9.09091 6.81006 9.09091 7.125C9.09091 7.43994 8.99513 7.74199 8.82464 7.96469C8.65415 8.18739 8.42292 8.3125 8.18182 8.3125Z" fill="white"/>
<path d="M13.6817 10.0938C14.8365 10.0938 15.7726 9.03043 15.7726 7.71875C15.7726 6.40707 14.8365 5.34375 13.6817 5.34375C12.527 5.34375 11.5908 6.40707 11.5908 7.71875C11.5908 9.03043 12.527 10.0938 13.6817 10.0938Z" fill="white"/>
<path d="M13.6818 11.1104C12.0488 11.1104 11.0681 11.9594 11.0681 12.8073C11.0681 13.2312 12.0488 13.6564 13.6818 13.6564C15.2144 13.6564 16.2954 13.2324 16.2954 12.8073C16.2954 11.9594 15.2708 11.1104 13.6818 11.1104Z" fill="white"/>
</svg>
