<svg width="19" height="21" viewBox="0 0 19 21" fill="none" xmlns="http://www.w3.org/2000/svg">
<path d="M9.29761 10.5C11.921 10.5 14.0476 8.37335 14.0476 5.75C14.0476 3.12665 11.921 1 9.29761 1C6.67425 1 4.54761 3.12665 4.54761 5.75C4.54761 8.37335 6.67425 10.5 9.29761 10.5Z" stroke="white" stroke-width="2"/>
<path d="M14.0477 12.3999H14.3821C15.0766 12.4001 15.7472 12.6539 16.2678 13.1136C16.7884 13.5733 17.1232 14.2073 17.2093 14.8965L17.5808 17.8643C17.6142 18.1317 17.5903 18.4031 17.5108 18.6605C17.4313 18.9179 17.298 19.1555 17.1197 19.3575C16.9413 19.5595 16.7221 19.7212 16.4764 19.832C16.2308 19.9427 15.9645 20 15.695 19.9999H2.90041C2.63098 20 2.36461 19.9427 2.11899 19.832C1.87337 19.7212 1.65411 19.5595 1.47577 19.3575C1.29743 19.1555 1.16409 18.9179 1.08459 18.6605C1.00509 18.4031 0.981254 18.1317 1.01466 17.8643L1.38516 14.8965C1.47133 14.207 1.80641 13.5728 2.3274 13.113C2.8484 12.6532 3.51941 12.3996 4.21426 12.3999H4.54771" stroke="white" stroke-width="2" stroke-linecap="round" stroke-linejoin="round"/>
</svg>
