<svg width="34" height="34" viewBox="0 0 34 34" fill="none" xmlns="http://www.w3.org/2000/svg">
<path d="M17 17C18.0609 17 19.0783 16.5786 19.8284 15.8284C20.5786 15.0783 21 14.0609 21 13C21 11.9391 20.5786 10.9217 19.8284 10.1716C19.0783 9.42143 18.0609 9 17 9C15.9391 9 14.9217 9.42143 14.1716 10.1716C13.4214 10.9217 13 11.9391 13 13C13 14.0609 13.4214 15.0783 14.1716 15.8284C14.9217 16.5786 15.9391 17 17 17ZM19.6667 13C19.6667 13.7072 19.3857 14.3855 18.8856 14.8856C18.3855 15.3857 17.7072 15.6667 17 15.6667C16.2928 15.6667 15.6145 15.3857 15.1144 14.8856C14.6143 14.3855 14.3333 13.7072 14.3333 13C14.3333 12.2928 14.6143 11.6145 15.1144 11.1144C15.6145 10.6143 16.2928 10.3333 17 10.3333C17.7072 10.3333 18.3855 10.6143 18.8856 11.1144C19.3857 11.6145 19.6667 12.2928 19.6667 13ZM25 23.6667C25 25 23.6667 25 23.6667 25H10.3333C10.3333 25 9 25 9 23.6667C9 22.3333 10.3333 18.3333 17 18.3333C23.6667 18.3333 25 22.3333 25 23.6667ZM23.6667 23.6613C23.6653 23.3333 23.4613 22.3467 22.5573 21.4427C21.688 20.5733 20.052 19.6667 17 19.6667C13.9467 19.6667 12.312 20.5733 11.4427 21.4427C10.5387 22.3467 10.336 23.3333 10.3333 23.6613H23.6667Z" fill="white"/>
<circle cx="17" cy="17" r="17" fill="white" fill-opacity="0.15"/>
</svg>
