<svg width="23" height="22" viewBox="0 0 23 22" fill="none" xmlns="http://www.w3.org/2000/svg">
<path d="M15.6375 18.752L15.0275 13.628C14.9411 12.9022 14.6049 12.2346 14.0822 11.7506C13.5596 11.2667 12.8864 10.9997 12.1893 11H10.0887C9.39192 11.0002 8.7192 11.2674 8.19692 11.7513C7.67464 12.2352 7.33874 12.9026 7.25234 13.628L6.64142 18.752C6.60789 19.0335 6.63183 19.3193 6.71164 19.5903C6.79145 19.8614 6.92531 20.1116 7.10433 20.3242C7.28336 20.5368 7.50344 20.707 7.74997 20.8235C7.9965 20.94 8.26384 21.0002 8.53423 21H13.7456C14.0159 21.0001 14.2832 20.9398 14.5296 20.8232C14.776 20.7066 14.996 20.5364 15.1749 20.3238C15.3538 20.1112 15.4876 19.8611 15.5673 19.5901C15.6471 19.3191 15.671 19.0334 15.6375 18.752V18.752Z" stroke="white" stroke-width="2" stroke-linecap="round" stroke-linejoin="round"/>
<path d="M11.1397 7C12.7188 7 13.999 5.65685 13.999 4C13.999 2.34315 12.7188 1 11.1397 1C9.56064 1 8.28052 2.34315 8.28052 4C8.28052 5.65685 9.56064 7 11.1397 7Z" stroke="white" stroke-width="2"/>
<path d="M3.51528 10C4.56802 10 5.42143 9.10457 5.42143 8C5.42143 6.89543 4.56802 6 3.51528 6C2.46254 6 1.60913 6.89543 1.60913 8C1.60913 9.10457 2.46254 10 3.51528 10Z" stroke="white" stroke-width="2"/>
<path d="M18.7645 10C19.8173 10 20.6707 9.10457 20.6707 8C20.6707 6.89543 19.8173 6 18.7645 6C17.7118 6 16.8584 6.89543 16.8584 8C16.8584 9.10457 17.7118 10 18.7645 10Z" stroke="white" stroke-width="2"/>
<path d="M3.5154 13H3.22376C2.77254 12.9999 2.33592 13.1678 1.9916 13.4738C1.64728 13.7798 1.41757 14.204 1.34334 14.671L1.02597 16.671C0.980422 16.9575 0.994917 17.2511 1.06845 17.5311C1.14197 17.8112 1.27277 18.0711 1.45173 18.2928C1.6307 18.5144 1.85353 18.6925 2.10475 18.8146C2.35596 18.9368 2.62951 19 2.90638 19H6.37462" stroke="white" stroke-width="2" stroke-linecap="round" stroke-linejoin="round"/>
<path d="M18.7645 13H19.0561C19.5074 12.9999 19.944 13.1678 20.2883 13.4738C20.6326 13.7798 20.8623 14.204 20.9366 14.671L21.2539 16.671C21.2995 16.9575 21.285 17.2511 21.2115 17.5311C21.1379 17.8112 21.0071 18.0711 20.8282 18.2928C20.6492 18.5144 20.4264 18.6925 20.1752 18.8146C19.9239 18.9368 19.6504 19 19.3735 19H15.9053" stroke="white" stroke-width="2" stroke-linecap="round" stroke-linejoin="round"/>
</svg>
